<svg width="244" height="165" viewBox="0 0 244 165" fill="none" xmlns="http://www.w3.org/2000/svg">
<path d="M176.578 34.4377C176.531 35.0471 176.412 35.2145 176.663 35.6817C179.672 37.1679 179.672 32.546 180.003 30.8051C181.06 25.2275 182.553 19.722 183.644 14.1564C184.432 10.5338 184.897 6.81254 186.013 3.26992C186.479 2.05273 187.438 1.35409 188.734 0.836695C194.478 -1.45871 206.773 0.969506 207.964 8.1129C208.168 9.34077 205.815 15.7203 205.244 17.4815C203.43 23.1675 201.658 28.867 199.93 34.5798C199.072 37.3974 197.494 42.0492 197.094 44.833L212.25 26.9884C214.456 24.3446 216.528 21.55 218.782 18.9611C219.612 17.9581 220.939 17.5472 222.24 17.5769C227.286 17.7327 232.475 21.8099 235.02 26.0193C238.207 31.2898 236.926 33.2667 233.027 36.9517C227.603 42.0769 222.157 47.2739 216.897 52.5012C218.798 53.2035 225.918 54.882 226.51 55.7632C227.161 56.7346 226.801 71.055 226.798 72.4126C226.738 83.1547 226.789 93.897 226.95 104.638C226.982 106.684 226.979 108.912 226.944 110.955C226.892 114.173 228.242 115.478 229.724 118.096C233.715 116.676 237.691 114.976 241.755 113.607C242.48 114.949 242.792 115.92 242.965 117.432C243.284 120.192 242.489 122.965 240.759 125.138C237.722 128.876 228.836 131.005 224.222 132.707L199.128 141.784C196.333 142.823 193.517 144 190.69 144.942C181.737 147.925 177.653 151.734 169.394 144.861C169.207 144.952 169.018 145.039 168.828 145.121C166.125 146.27 160.7 147.876 157.657 148.948C146.764 152.847 135.85 156.686 124.915 160.465C121.726 161.585 114.525 164.39 111.455 164.994C110.511 165.179 100.371 161.27 98.5944 160.643L65.1687 148.766C57.7894 146.178 50.4242 143.548 43.0735 140.879C39.9248 139.747 36.8214 138.808 33.7105 137.544C33.5502 135.252 33.6139 131.918 33.5858 129.547C31.0011 130.695 27.9789 131.557 25.2905 132.586C20.899 134.266 16.3708 135.997 11.9083 137.468C9.99832 138.097 8.16034 138.005 6.4479 136.927C3.76337 135.237 1.17209 130.838 0.509483 127.761C-0.213716 124.009 -0.403103 119.308 1.55168 115.898C2.83055 113.667 5.15326 113.786 7.33066 113.244C9.85804 112.615 12.4395 112.235 14.9879 111.731C20.4371 110.652 25.9023 109.713 31.3349 108.538C32.2666 108.337 33.0517 108.219 33.5335 107.446C32.9021 106.477 17.0736 103.364 14.6536 102.166C13.652 101.67 12.9244 100.934 12.3498 99.9812C10.4073 96.7603 10.7057 91.6965 11.5949 88.1815C12.4211 84.9161 14.554 81.0263 17.5443 79.2868C21.9603 76.7182 28.6441 82.4704 33.4038 83.6772L33.5051 83.7022C33.8807 79.2111 33.3855 72.3064 33.5523 67.561C36.5403 66.0416 44.3913 64.3441 48.4277 62.7887C47.0249 60.5131 44.9502 57.8402 43.3783 55.6392L30.6221 38.08C29.0348 35.8603 27.6765 33.8551 28.3181 30.9699C29.8627 24.0246 39.2443 18.0864 46.161 18.9318C48.0518 19.2177 49.034 20.4624 49.9643 21.9643C55.3084 30.5908 59.7852 40.1642 65.3645 48.609L65.4733 43.6419C66.7211 43.2137 67.2727 43.0595 68.5686 42.8302L68.578 24.8053C72.545 23.7704 76.9997 23.2297 81.0189 22.5532L97.904 19.6061C102.415 18.8111 107.487 17.6752 112.014 17.1411C113.604 16.9534 119.22 18.7774 121.111 19.2845L131.124 21.9925C132.76 22.4365 134.763 22.8663 136.292 23.4411C137.17 23.5684 138.126 23.9112 138.98 24.1841C138.86 22.7327 138.439 17.3588 138.982 16.2406C140.384 15.2546 149.451 18.3443 151.163 18.926C151.132 16.3695 150.925 14.5466 154.303 15.4045C155.812 15.788 157.339 16.2285 158.843 16.6385L168.774 19.3325C170.587 19.8378 173.965 20.1156 175.071 21.63C175.011 22.448 174.396 21.9936 174.365 23.241C174.291 26.2224 174.814 29.4558 175.292 32.3744C176.32 33.1172 176.457 33.1637 176.578 34.4377Z" fill="#001F3F"/>
<path d="M151.162 18.9282C151.131 16.3717 150.924 14.5488 154.302 15.4067C155.812 15.7902 157.339 16.2307 158.842 16.6407L168.773 19.3347C170.586 19.84 173.964 20.1178 175.07 21.6322C175.01 22.4502 174.395 21.9958 174.364 23.2432C174.29 26.2246 174.813 29.458 175.291 32.3766C176.319 33.1194 176.456 33.1659 176.578 34.4399L176.098 33.6738C175.993 33.6973 175.888 33.7208 175.783 33.7444C175.716 34.4218 175.789 34.58 175.982 35.2245L175.837 35.3829L175.852 35.0153C175.7 35.2504 175.512 35.8053 175.399 36.0965C173.93 37.3723 173.354 37.0177 171.819 37.5095C170.216 38.023 169.116 40.947 168.453 42.4543C166.915 42.0145 165.373 41.5886 163.827 41.1765C163.781 39.78 163.485 35.4542 164.07 34.5101C165.199 33.7427 166.853 34.4814 167.756 33.1571C167.93 31.9828 167.183 31.6145 166.091 31.3546C158.663 29.5876 151.354 27.2968 143.938 25.5006L143.833 25.6033C142.631 25.5256 137.211 24.0638 136.087 23.5436L136.291 23.4433C137.169 23.5706 138.125 23.9134 138.979 24.1863C138.859 22.7349 138.439 17.361 138.981 16.2428C140.384 15.2568 149.45 18.3465 151.162 18.9282Z" fill="#F4F4F6"/>
<path d="M151.162 18.9282C151.131 16.3717 150.924 14.5488 154.302 15.4067C155.812 15.7902 157.339 16.2307 158.842 16.6407L168.773 19.3347C170.586 19.84 173.964 20.1178 175.07 21.6322C175.01 22.4502 174.395 21.9958 174.364 23.2432C174.29 26.2246 174.813 29.458 175.291 32.3766C176.319 33.1194 176.456 33.1659 176.578 34.4399L176.098 33.6738C175.993 33.6973 175.888 33.7208 175.783 33.7444C175.716 34.4218 175.789 34.58 175.982 35.2245L175.837 35.3829L175.852 35.0153L175.707 34.3548C175.302 33.9359 173.876 33.784 173.253 33.6774C173.048 29.7112 172.752 25.9046 172.586 21.8942C171.94 21.6658 171.424 21.6217 170.772 21.4888C164.81 20.2766 158.993 18.144 153.05 16.9288C152.433 17.645 152.581 19.884 152.576 20.9486C150.03 20.0514 142.845 18.1798 140.334 17.8039C140.395 20.0485 140.419 22.2942 140.406 24.5398C141.543 24.7095 142.868 25.0864 143.938 25.5006L143.833 25.6033C142.631 25.5256 137.211 24.0638 136.087 23.5436L136.291 23.4433C137.169 23.5706 138.125 23.9134 138.979 24.1863C138.859 22.7349 138.439 17.361 138.981 16.2428C140.384 15.2568 149.45 18.3465 151.162 18.9282Z" fill="#3A3A37"/>
<path d="M202.242 57.6519C203.562 57.4695 204.903 57.5601 206.186 57.9183C215.63 60.6337 216.66 75.5339 218.189 83.2929C220.618 95.6114 221.747 107.257 227.847 118.425C225.856 119.496 220.308 121.331 217.918 122.193L198.101 129.352C194.539 130.603 187.868 132.724 184.661 134.322C184.711 134.436 184.757 134.55 184.8 134.665C187.692 142.346 182.183 150 173.914 146.112C160.141 138.781 162.158 95.0974 154.082 81.9892C151.87 78.3997 150.028 77.4082 146.095 76.4573C147.957 75.5323 152.446 74.3922 154.681 73.6165C158.872 72.1615 163.139 70.7581 167.341 69.3395L191.223 61.2621C194.579 60.1356 198.921 58.3551 202.242 57.6519Z" fill="#F4F4F6"/>
<path d="M174.039 74.4637C176.935 73.676 179.804 72.7944 182.644 71.8205C185.872 70.7156 188.906 69.5174 192.272 68.8986C192.743 70.47 194.395 75.1969 194.015 76.4978C193.398 77.4813 187.552 79.0027 186.05 79.5477C186.649 81.3339 187.19 82.9736 187.697 84.7942C189.521 85.1821 192.956 86.3737 194.974 87.0255C198.337 86.3306 203.409 84.5986 206.618 83.3843C206.777 84.8864 207.303 86.5705 207.74 88.0283C208.849 91.7413 209.68 95.6131 210.788 99.3139C212.766 98.2457 214.994 97.5218 217.193 97.0485C217.345 97.577 217.508 98.1069 217.584 98.6524C217.897 100.928 218.652 103.08 219.385 105.25C217.544 105.707 206.703 108.978 205.43 109.825C204.596 106.958 203.763 104.454 203.472 101.458C206.165 100.925 207.224 100.447 209.74 99.2805C208.228 94.7793 207.454 88.9011 205.814 84.7823C202.714 85.5202 198.621 87.369 195.517 88.1424C193.689 90.4288 192.337 92.2535 190.759 94.7613C190.795 96.9779 192.506 102.881 193.36 105.035C194.993 104.203 197.838 103.596 199.76 102.892C200.549 105.849 200.761 107.793 202.006 110.853C201.552 111.077 200.971 111.352 200.491 111.498C196.283 112.775 192.117 114.26 187.914 115.547C187.291 112.775 186.501 110.364 185.97 107.512C188.412 106.736 189.963 106.059 192.546 105.441C191.248 102.369 190.412 98.3417 189.275 94.9011C181.8 92.5306 182.473 92.0269 174.792 94.9237C173.856 95.277 171.652 95.9721 170.63 96.0744C171.418 98.4144 172.084 101.359 172.705 103.796C174.705 102.956 177.605 102.318 179.219 101.423C179.779 103.753 180.915 107.566 181.17 109.772C179.67 110.204 176.271 110.926 175.31 111.932C174.903 112.729 175.087 113.313 175.393 114.132C176.121 116.076 176.325 117.051 176.642 119.066C178.68 118.449 181.181 117.776 183.069 116.831C184.236 119.979 184.311 122.05 185.286 124.897C184.399 125.356 174.948 128.617 174.157 128.685C173.296 129.172 172.472 129.401 171.538 129.702L170.901 127.492C170.49 125.595 170.103 123.523 169.352 121.741C172.007 120.479 172.917 120.178 175.797 119.532C175.087 117.443 174.611 114.367 173.908 111.938C172.607 112.504 168.488 114.338 167.341 114.062C166.933 113.29 167.091 112.506 166.85 111.74C166.119 109.415 165.658 108.524 165.514 106.018C167.383 105.744 169.99 104.515 171.93 103.975C170.96 101.07 170.434 98.6361 169.716 95.6627C178.269 91.4559 180.307 95.092 186.421 85.0807C186.307 82.9326 185.92 81.7914 185.212 79.7466C181.956 80.9341 179.766 81.7742 176.407 82.5566C175.549 79.9658 174.959 76.7322 174.039 74.4637Z" fill="#0B0A09"/>
<path d="M191.144 70.1461L191.611 70.1842C192.414 71.4179 192.445 74.1883 193.35 76.0581C188.713 77.9943 182.319 79.4659 177.408 81.2646C177.229 81.3178 177.148 81.2679 176.938 81.2243C176.673 80.8004 175.752 76.5712 175.349 75.4094C178.592 73.9515 187.596 71.0465 191.144 70.1461Z" fill="#F4F4F6"/>
<path d="M198.733 104.105C199.307 104.338 200.414 109.468 200.592 110.323C199.589 110.496 198.298 111.071 197.303 111.396C194.606 112.275 191.557 113.635 188.815 114.217L188.623 114.232C188.024 113.592 187.256 109.058 187.026 107.924C190.373 107.172 195.605 105.417 198.733 104.105Z" fill="#F4F4F6"/>
<path d="M215.958 98.3136L216.193 98.4195C216.647 99.0861 217.766 103.4 217.99 104.307C214.423 106.023 210.124 106.948 206.445 108.47L206.186 108.553L205.902 108.343C205.192 106.144 204.834 104.463 204.552 102.165C207.384 101.583 213.104 99.376 215.958 98.3136Z" fill="#F4F4F6"/>
<path d="M178.032 103.071L178.344 103.069C179.2 103.854 179.882 107.769 179.982 109.042C179.243 109.24 177.658 109.891 176.735 110.186C174.016 111.053 171.223 111.83 168.532 112.741C168.355 112.829 168.431 112.788 168.151 112.719C167.342 111.046 166.969 108.615 166.655 106.773C169.483 105.615 174.994 104.062 178.032 103.071Z" fill="#F4F4F6"/>
<path d="M170.403 122.185C172.802 121.6 181.233 118.499 182.366 118.406C183.159 119.05 183.372 122.538 184.306 124.481C181.57 124.91 178.239 126.447 175.497 127.29C174.992 127.446 172.413 128.189 172.103 128.307C171.645 127.695 171.769 127.592 171.656 126.723C171.422 125.166 171.001 123.642 170.403 122.185Z" fill="#F4F4F6"/>
<path d="M187.243 85.494C188.514 86.1546 192.758 87.4145 194.43 88.0251C192.823 90.0511 191.395 92.3251 189.77 94.2687C188.523 93.59 184.208 92.3508 182.583 91.8301C183.924 89.8424 185.786 87.5041 187.243 85.494Z" fill="#F4F4F6"/>
<path d="M50.8371 87.1201C59.7936 90.2576 69.0571 92.9739 78.0415 96.0111C82.4944 97.5484 86.9599 99.049 91.4376 100.512C93.2432 101.11 96.9643 102.435 98.6716 102.702C98.9154 105.616 98.7087 112.712 98.7096 115.943C98.7883 124.529 98.7543 133.116 98.6079 141.701C96.7889 140.862 93.61 139.885 91.6403 139.239C88.4609 138.209 85.2917 137.147 82.1338 136.053L50.8487 125.479C50.7287 123.067 50.8261 119.871 50.8094 117.381C50.7252 111.64 50.7196 105.897 50.7929 100.155C50.8299 96.132 50.5477 90.9573 50.8371 87.1201Z" fill="#D3C063"/>
<path d="M155.497 92.5554L155.643 92.595C156.753 93.4909 158.684 107.835 159.012 110.352C159.827 116.59 161.357 122.644 162.501 128.761L138.333 136.98C135.443 137.965 132.495 138.829 129.626 139.85C127.974 140.387 126.134 140.929 124.588 141.687L124.538 102.792C126.726 102.303 131.082 100.636 133.401 99.8797L155.497 92.5554Z" fill="#D3C063"/>
<path d="M111.96 18.5724C112.871 18.4352 114.607 19.1746 115.583 19.4669C117.52 20.0341 119.463 20.584 121.41 21.1166C128.968 23.1815 136.617 25.1422 144.132 27.3828C150.506 29.2836 157.059 30.4928 163.271 32.783C160.571 33.7546 157.748 33.991 154.992 34.6206C148.073 36.2023 141.105 37.7619 134.125 39.0458C132.315 39.3788 130.159 40.2508 128.447 40.4347L128.312 40.4483C127.548 40.5288 126.708 40.1408 125.971 39.8652C123.435 38.9483 119.946 38.1003 117.271 37.3753L98.5389 32.4428L82.2455 27.9437C78.7361 27.0058 77.0273 26.2453 73.3203 25.8509C75.841 24.9004 78.4597 24.8048 81.0372 24.1918C83.9725 23.4937 86.846 23.1453 89.8014 22.6597C97.2225 21.4938 104.611 20.1309 111.96 18.5724Z" fill="#D3C063"/>
<path d="M70.0872 26.341C74.442 27.7746 78.8583 28.5576 83.1509 29.9029C97.5795 34.4252 112.893 37.4402 127.246 42.0677L127.211 56.6202C125.691 56.5527 119.765 54.7495 117.765 54.2405C106.288 51.3194 94.862 47.8701 83.3538 45.0535C79.2675 44.0535 74.2616 42.238 70.1638 41.8286C69.897 38.6307 69.906 29.5706 70.0872 26.341Z" fill="#D3C063"/>
<path d="M72.8413 29.4373C74.7902 29.5535 80.7131 31.3614 82.9335 31.9954L95.3919 35.4264C99.4473 36.5527 104.028 37.4468 107.894 38.7335C107.934 42.4765 107.934 46.2197 107.896 49.9626C105.474 49.1239 103.467 48.7654 101.085 48.0676C91.7042 45.3206 82.1277 42.9865 72.73 40.3327L72.8413 29.4373Z" fill="#0B0A09"/>
<path d="M73.4995 30.6179C76.4213 30.9122 80.3321 32.3576 83.3638 33.0982C91.0697 34.9808 99.1852 37.6228 106.892 39.1809C107.034 42.0633 106.929 45.8243 106.934 48.7739C99.1836 46.0663 89.695 44.1992 81.7033 41.8715C78.9985 41.0838 76.1177 40.4967 73.4697 39.5369C73.4494 36.5638 73.4594 33.5907 73.4995 30.6179Z" fill="#F4F4F6"/>
<path d="M79.4603 33.8359C80.4061 34.0048 81.2468 34.1943 82.1786 34.4124C83.0837 35.4234 84.0095 36.6304 82.9449 37.868C82.3373 38.1044 82.247 38.146 81.5835 38.064C81.0416 37.9151 80.8199 37.8416 80.2411 37.8159C79.6925 38.535 80.7307 39.1813 79.7519 39.6305C79.2623 39.1451 79.4824 34.8533 79.4603 33.8359Z" fill="#0B0A09"/>
<path d="M80.21 34.6836C81.8664 35.0153 82.9646 35.5377 82.6823 37.4111C81.9189 37.4587 80.9193 37.2012 80.1484 37.0423L80.21 34.6836Z" fill="#F4F4F6"/>
<path d="M91.0691 36.8672C92.2984 37.5026 93.3961 41.9277 93.4944 43.3017L93.3283 43.4834C92.7247 42.8947 92.6573 42.4536 92.4092 41.6336C90.5311 41.2091 90.8527 41.2489 89.0527 41.6678C89.1476 40.2863 90.4279 38.2876 91.0691 36.8672Z" fill="#0B0A09"/>
<path d="M91.0394 38.1484C91.6649 38.4556 92.1261 39.9281 92.0551 40.5963L91.6982 40.855C90.9303 40.6731 90.9708 40.8039 90.4849 40.3225C90.324 39.6713 90.7774 38.8083 91.0394 38.1484Z" fill="#F4F4F6"/>
<path d="M94.8303 37.7891C95.4755 38.0953 97.9122 42.5692 98.4528 43.4854C98.4228 41.4503 98.3851 40.8632 98.801 38.8511C99.3558 39.6359 99.0296 43.605 98.9221 44.6196L98.9435 44.9921C97.9831 44.9599 96.549 40.9122 95.6145 40.3664C94.9999 41.1359 95.7495 42.9399 95.1345 43.7789L94.8705 43.8138C94.3673 42.9753 94.7713 39.031 94.8303 37.7891Z" fill="#0B0A09"/>
<path d="M84.6275 35.2188L85.04 35.3568C85.7612 36.165 85.3649 39.3875 85.2992 40.5936C86.5648 40.8159 87.6338 40.8551 88.4799 41.8354C87.355 41.9831 85.7506 41.3474 84.6668 40.9733C84.5573 39.2751 84.4594 36.8788 84.6275 35.2188Z" fill="#0B0A09"/>
<path d="M116.548 42.2458C118.387 42.2597 119.264 43.0785 120.689 44.1239C121.994 46.8753 122.498 50.2497 118.972 51.4323C113.964 51.6187 111.152 44.9878 116.548 42.2458Z" fill="#001F3F"/>
<path d="M116.453 43.3263C117.949 43.2585 118.765 43.4719 119.825 44.6289C120.535 45.3905 120.902 46.4099 120.84 47.4493C120.759 48.7892 120.148 49.3263 119.203 50.1565L116.785 50.1697C114.166 47.4907 113.933 46.0352 116.453 43.3263Z" fill="#74777B"/>
<path d="M66.9795 45.2419C67.7014 45.2853 69.5655 45.8534 70.3873 46.0598C74.3505 47.0541 78.2057 48.2811 82.164 49.3393L109.497 56.704C113.65 57.816 120.091 59.242 123.921 60.6495C124.177 64.1566 124.025 71.7822 123.932 75.4275C120.197 74.2062 116.158 73.3331 112.356 72.2579L77.5918 62.7731C74.0229 61.8113 70.3821 61.0168 66.8624 59.9996C66.788 56.5738 66.5301 48.4246 66.9795 45.2419Z" fill="#86A1A9"/>
<path d="M69.831 48.1043C74.0229 49.3403 78.9129 50.2659 83.1913 51.5379C84.3728 51.8892 88.7889 53.2336 89.6304 53.3382C93.0485 53.974 97.4915 55.4525 100.886 56.4188C102.217 56.7974 103.626 57.03 104.953 57.4003C104.968 58.7675 105.207 67.9173 104.814 68.4713L104.61 68.5739C103.706 68.0863 99.3729 66.954 98.1137 66.6027C91.8033 64.8755 85.4821 63.1891 79.1502 61.5432C76.5881 60.8574 72.1392 59.3364 69.888 59.0612C69.5121 56.6112 69.7568 50.693 69.831 48.1043Z" fill="#F4F4F6"/>
<path d="M69.831 48.1043C74.0229 49.3403 78.9129 50.2659 83.1913 51.5379C84.3728 51.8892 88.7889 53.2336 89.6304 53.3382C89.3663 53.6127 89.1927 53.7532 89.0288 54.0922C84.8696 52.8761 80.2274 51.8131 76.0199 50.5935C74.4394 50.1352 71.7122 49.6442 70.3682 49.1502C70.3941 52.062 70.4762 55.1787 70.4158 58.075C72.9274 59.0167 75.1333 59.4947 77.7223 60.1841L89.927 63.4597L100.526 66.3551C101.393 66.5846 103.36 67.2568 104.119 67.3544C104.28 67.6983 104.495 68.3491 104.61 68.5739C103.706 68.0863 99.3729 66.954 98.1137 66.6027C91.8033 64.8755 85.4821 63.1891 79.1502 61.5432C76.5881 60.8574 72.1392 59.3364 69.888 59.0612C69.5121 56.6112 69.7568 50.693 69.831 48.1043Z" fill="#0B0A09"/>
<path d="M89.6265 53.3391C93.0447 53.9749 97.4876 55.4534 100.883 56.4197C102.213 56.7983 103.622 57.0309 104.949 57.4012C104.964 58.7684 105.203 67.9182 104.81 68.4722L104.606 68.5748C104.491 68.35 104.276 67.6992 104.115 67.3553C103.899 66.0192 104.024 59.6084 104.028 57.9496C101.292 57.7225 95.5916 55.7966 92.8157 55.092C91.5716 54.7761 90.2402 54.4844 89.0249 54.0931C89.1889 53.7541 89.3624 53.6136 89.6265 53.3391Z" fill="#0B0A09"/>
<path d="M87.7579 55.2325C89.1305 56.3356 90.1734 59.9963 90.2546 61.7255L90.0892 61.9042C89.5823 61.5731 89.333 60.8074 89.0787 60.2287C88.3521 60.1397 87.5394 59.9545 86.8033 59.8222C86.4547 60.1969 86.3766 60.3721 86.1313 60.8074L85.7737 60.8673C85.3674 59.912 87.2535 56.5458 87.7579 55.2325Z" fill="#0B0A09"/>
<path d="M87.9368 56.6359C88.4628 57.1211 88.9502 58.5788 88.9297 59.3028L88.5086 59.5873C87.7468 59.4244 87.6047 59.5339 87.2127 59.0253C87.023 58.145 87.5088 57.4453 87.9368 56.6359Z" fill="#F4F4F6"/>
<path d="M76.369 52.4035C77.8265 52.787 81.0405 53.9256 80.1884 55.9395C79.6588 56.4169 79.5629 56.4361 78.8659 56.5726C78.2773 56.5386 77.8122 56.5259 77.2229 56.5353C76.8245 56.833 76.6716 57.3087 76.4535 57.7778C76.2423 56.4685 76.3273 53.7506 76.369 52.4035Z" fill="#0B0A09"/>
<path d="M76.9556 53.1497C78.6368 53.6672 79.7231 53.9886 79.5 55.9201C78.3891 56.0009 77.8716 56.1654 77.0713 55.4791C76.75 54.8344 76.9048 53.8967 76.9556 53.1497Z" fill="#F4F4F6"/>
<path d="M91.6607 56.3908C92.7895 57.027 94.3833 60.8226 95.0069 62.1847C95.1513 60.6595 95.1395 59.2798 95.3972 57.7282C95.8577 58.5517 95.7151 62.4982 95.6769 63.585C94.2063 62.9611 93.8451 59.6007 92.5581 59.1305C92.0945 59.6363 92.764 62.1083 91.9311 62.581L91.6337 62.248C91.4392 60.9751 91.5067 57.6963 91.6607 56.3908Z" fill="#0B0A09"/>
<path d="M81.4911 53.5618C82.307 53.9584 82.0261 57.864 82.0158 58.8498C83.2023 59.259 84.5357 59.2359 85.1056 60.3775C84.2727 60.3774 82.1995 59.5758 81.2998 59.2614C81.2996 57.5992 81.2232 55.1373 81.4911 53.5618Z" fill="#0B0A09"/>
<path d="M113.673 61.095C116.181 61.0065 117.877 62.3792 118.504 64.7847C118.979 66.6071 118.505 67.6579 117.581 69.146L115.662 70.0243C110.018 69.9608 108.43 61.8038 113.673 61.095Z" fill="#001F3F"/>
<path d="M113.636 62.1381C115.736 62.1249 117.806 63.186 117.758 65.5912C117.722 67.3651 116.754 68.0724 115.539 69.1817C112.763 69.3657 109.375 64.6064 113.636 62.1381Z" fill="#74777B"/>
<path d="M36.6934 69.5892C51.7314 74.6192 67.29 79.5666 82.4264 84.3587C88.1973 86.1459 93.9466 88.0025 99.6727 89.9283C102.896 90.9822 105.909 91.8348 109.094 93.0661C107.917 94.2999 106.321 95.6144 105.012 96.7489L99.5051 101.26C98.1805 100.943 96.4994 100.211 95.1654 99.766C93.0782 99.0693 90.9905 98.3941 88.8989 97.7125C80.1944 94.9162 71.5111 92.0538 62.85 89.1259C59.417 87.9987 55.9766 86.8945 52.5287 85.8131C49.0365 84.7024 45.6071 84.2426 44.054 80.9088C42.8781 78.3847 37.2729 71.7104 36.6934 69.5892Z" fill="#D3C063"/>
<path d="M45.305 129.623C46.6959 129.563 56.899 133.388 58.7077 134.009L91.2607 145.246C94.0939 146.245 98.7636 147.121 100.278 149.518C103.119 154.015 106.497 158.345 109.27 162.865C107.031 161.723 105.037 161.198 102.755 160.234L54.9215 143.286C51.7741 142.149 48.6255 141.002 45.4724 139.882C42.4257 138.8 39.1553 137.871 36.1699 136.665C39.2171 134.54 42.3165 131.905 45.305 129.623Z" fill="#D3C063"/>
<path d="M191.728 39.3279C192.072 39.2964 192.117 39.3292 192.43 39.4419C192.92 40.9923 191.769 56.8964 191.619 59.1692C190.01 59.6043 187.44 60.6814 185.681 61.2537C179.026 63.4015 172.394 65.6159 165.783 67.8966C162.334 69.0945 155.376 71.6365 152.066 72.4937L151.515 72.5424C151.01 71.7998 152.356 64.5573 152.448 63.0059C152.53 61.6177 152.681 59.5394 152.779 58.122C154.879 57.7116 160.516 55.6065 162.771 54.8963C165.703 53.9729 170.284 52.6303 172.903 51.2833C174.736 48.6965 174.934 46.3731 176.705 44.1426C177.907 43.655 180.197 43.0317 181.489 42.6335C184.969 41.5611 188.314 40.6138 191.728 39.3279Z" fill="#D3C063"/>
<path d="M217.65 23.1555C218.135 23.41 219.382 26.4092 220.01 27.2584C223.491 31.9618 226.439 33.8376 231.736 35.7845C226.759 40.3136 222.001 45.2539 217.091 49.8787C214.537 52.2846 212.132 55.0666 209.406 57.3125C208.334 56.7664 207.426 56.5237 206.282 56.1755C201.517 55.3649 198.018 57.0843 193.464 58.5027C193.526 57.2696 193.651 52.6406 194.109 51.9642C196.71 48.1278 201.187 43.0617 204.11 39.5775L217.65 23.1555Z" fill="#F4F4F6"/>
<path d="M112.459 94.4488C115.031 96.857 119.764 100.408 122.653 102.67C122.814 106.272 122.62 111.825 122.641 115.666L122.657 146.94C121.128 149.497 118.643 152.787 116.838 155.243C115.433 157.092 113.578 159.754 112.379 161.71C112.54 146.114 112.37 130.262 112.388 114.642L112.382 101.987C112.373 99.7185 112.26 96.6294 112.459 94.4488Z" fill="#D3C063"/>
<path d="M110.35 94.5156C110.724 94.8819 110.542 99.918 110.536 100.757L110.554 111.326L110.55 143.415C110.542 149.093 110.333 155.86 110.611 161.448C109.261 159.566 107.904 157.49 106.587 155.565C104.644 152.574 102.456 149.628 100.475 146.556C100.737 142.537 100.499 136.128 100.504 131.908C100.562 122.189 100.526 112.47 100.396 102.751C101.972 101.762 108.715 95.9094 110.35 94.5156Z" fill="#D3C063"/>
<path d="M44.9849 30.7961C45.936 31.1063 62.623 58.1965 65.5656 61.6369L64.0599 62.5701L63.9515 72.5222C61.5773 71.5494 57.4241 70.4399 55.7386 69.5913C54.7192 68.7529 47.6898 58.7292 46.5427 57.0717C42.0081 50.5186 36.518 43.7521 32.272 37.1375C38.4073 36.5822 40.5347 34.7439 44.9849 30.7961Z" fill="#F4F4F6"/>
<path d="M163.268 134.368C163.363 134.361 163.706 134.4 163.746 134.479C165.312 137.568 166.315 140.469 168.155 143.459C166.865 143.789 164.397 144.818 163.02 145.3C159.208 146.594 155.408 147.921 151.62 149.281L117.861 161.096C116.321 161.568 115.261 162.067 113.812 162.76C116.096 159.009 119.272 155.355 121.656 151.625C122.462 150.363 123.606 148.805 124.574 147.658L147.21 139.877C152.549 138.064 157.995 136.361 163.268 134.368Z" fill="#D3C063"/>
<path d="M35.0789 71.0928C36.1125 71.7188 43.456 83.4189 44.606 85.1327C44.8809 89.0951 44.5501 93.7777 44.6192 97.8023C44.7915 107.822 44.5512 117.802 44.6681 127.827L40.6302 130.958C38.8753 132.3 36.9639 133.83 35.1247 135.021C35.1969 129.492 35.0843 123.977 35.0936 118.447L35.2362 87.2414C35.2546 82.0644 34.8027 76.2056 35.0789 71.0928Z" fill="#D3C063"/>
<path d="M241.01 115.956L241.182 116.133C242.015 119.276 240.261 124.243 237.363 125.826C234.831 127.208 232.006 128.105 229.291 129.078L218.615 132.922C208.005 136.753 196.82 141.108 186.158 144.624C187.64 140.877 187.839 139.214 187.01 135.279C188.485 134.562 194.527 132.546 196.476 131.862L212.298 126.177L231.094 119.378C234.138 118.284 237.955 116.747 241.01 115.956Z" fill="#F4F4F6"/>
<path d="M186.73 8.01924C188.04 8.78941 189.166 9.79075 190.737 10.5894C195.587 13.0554 200.103 13.5129 205.247 12.0294C204.588 13.7953 204.018 15.5677 203.469 17.3703C200.763 26.2807 197.632 35.1913 195.229 44.1825C194.907 45.3427 194.704 45.9863 194.241 47.0948C194.175 45.048 194.241 43.0253 194.309 40.9801C194.449 36.7544 192.141 37.2133 189.144 38.2602L189.072 34.5716C188.433 33.9651 187.774 33.5201 187.063 33.0118C184.978 33.6712 183.207 34.1486 181.084 34.6757C181.137 32.9271 183.021 25.2986 183.506 22.9988L185.857 12.0517C186.14 10.7815 186.315 9.17622 186.73 8.01924Z" fill="#F4F4F6"/>
<path d="M150.489 80.972L150.851 81.0533C153.387 83.2456 154.596 87.4877 155.735 90.5886C152.461 91.4957 148.587 92.9371 145.305 94.0446L131.014 98.7727C128.633 99.5765 126.043 100.567 123.659 101.245C122.761 100.504 121.991 99.7885 121.039 99.0341C118.595 97.2036 115.825 95.1081 113.517 93.1566C125.814 89.4585 138.167 84.8119 150.489 80.972Z" fill="#D3C063"/>
<path d="M33.2915 115.21C33.7829 115.762 33.5033 126.326 33.4863 127.787C30.9267 128.863 16.4381 134.29 14.362 134.526C14.5372 133.928 14.6593 133.155 14.7763 132.528C15.5781 128.246 14.0138 124.798 12.4131 120.998C14.5234 120.191 16.3896 119.874 18.5562 119.272C23.4783 117.905 28.401 116.703 33.2915 115.21Z" fill="#F4F4F6"/>
<path d="M49.1008 64.5215C49.6682 64.6107 50.0843 64.7772 50.4224 65.2007L50.3512 65.5026C49.1739 66.5236 46.4286 66.5663 45.8703 68.0627C46.4439 69.0424 51.526 70.2938 52.8207 70.7052L65.9748 74.8925L99.2071 85.5863C103.094 86.871 107.68 88.0651 111.397 89.594C115.058 88.3636 145.364 78.1659 146.459 78.3096C147.152 78.4008 148.475 78.6618 148.908 79.2131C148.502 79.8888 145.233 80.7237 144.055 81.2053C141.691 82.0103 139.291 82.6771 136.926 83.4635C129.509 85.9856 122.069 88.4398 114.607 90.8258C113.577 91.1507 111.86 91.7309 110.862 91.4766C107.63 90.6538 104.433 89.4863 101.251 88.4858L76.8261 80.5894L51.8013 72.6198C48.7031 71.6412 39.9735 69.0332 37.4897 67.742L37.6304 67.7172C41.1756 67.0743 45.62 65.6233 49.1008 64.5215Z" fill="#D3C063"/>
<path d="M69.4044 67.7403C72.8933 68.9432 76.4134 69.5462 79.8334 70.6468C87.2326 73.0281 94.9688 74.6145 102.33 76.9608C102.439 79.2588 102.338 82.2256 102.319 84.5734C102.213 84.6174 102.107 84.6612 102 84.705C99.5445 83.764 95.4993 82.5865 93.1901 81.7668C85.4311 79.0129 77.0628 76.896 69.3993 74.1081C69.3213 72.1418 69.363 69.7064 69.4044 67.7403Z" fill="#F4F4F6"/>
<path d="M65.7188 63.842L98.3537 72.8763C105.902 74.9116 115.052 77.0927 122.484 79.4446C122.674 81.2424 122.622 82.4136 122.509 84.2123C121.37 84.7371 118.637 85.5478 117.395 85.6595C116.932 83.3069 116.397 80.78 113.794 79.9959C112.542 79.7509 111.618 79.9697 110.381 80.1735C108.593 82.9491 108.486 83.7279 109.759 86.7519C106.791 86.2828 105.726 85.4681 103.3 84.9889L103.339 76.088C91.6939 73.0984 80.0776 69.5707 68.5236 66.6315C68.4159 69.0994 68.5431 71.5689 68.4347 74.0681C67.5753 73.7058 66.7216 73.3304 65.8735 72.9424C65.852 70.0607 65.9039 66.6798 65.7188 63.842Z" fill="#D3C063"/>
<path d="M225.259 59.4649C225.156 62.7583 225.1 67.4049 225.331 70.6757L225.677 70.824C225.708 72.5065 225.97 73.8831 226.008 75.5907C226.033 76.7689 225.751 79.0961 225.862 80.0823C225.965 79.0619 226.383 79.0594 226.412 77.7434C226.477 74.6615 226.213 71.5881 226.439 68.5176C226.705 69.8265 226.609 98.1768 226.45 98.5386C226.406 97.5496 226.388 96.5596 226.394 95.5696L226.041 95.5479C225.579 96.259 226.211 97.4765 225.487 98.0548C225.293 99.3771 225.31 102.765 225.282 104.268C225.252 104.969 225.268 106.281 224.998 106.869C224.692 106.62 224.672 106.238 224.542 105.788C224.455 105.186 224.356 104.529 224.207 103.944C222.405 96.8244 221.244 89.5497 219.936 82.3257C219.275 78.6802 219.112 74.7201 217.578 71.2898C219.654 68.9925 223.514 62.3812 225.259 59.4649Z" fill="#D3C063"/>
<path d="M225.331 70.6781L225.677 70.8263C225.707 72.5088 225.97 73.8854 226.008 75.593C226.033 76.7712 225.751 79.0984 225.861 80.0846C225.965 79.0642 226.383 79.0617 226.412 77.7457C226.477 74.6638 226.212 71.5904 226.439 68.5199C226.705 69.8288 226.609 98.1791 226.45 98.5409C226.406 97.5519 226.388 96.5619 226.393 95.5719L226.041 95.5502C225.579 96.2613 226.211 97.4788 225.487 98.0571C225.315 88.9318 225.262 79.8046 225.331 70.6781Z" fill="#0B0A09"/>
<path d="M224.544 105.793C224.995 105.464 225.048 104.912 225.285 104.272C225.254 104.974 225.27 106.286 225.001 106.874C224.695 106.625 224.675 106.243 224.544 105.793Z" fill="#CBB771"/>
<path d="M186.636 34.9839L187.168 35.2646C187.906 36.2248 187.696 37.3828 187.658 38.6064C183.648 40.3248 179.568 41.084 175.679 42.7889C175.13 43.03 173.968 44.8875 173.046 45.5079L172.952 45.57C171.749 46.3771 170.014 46.6015 168.625 47.0493C166.303 47.7982 148.603 52.9944 148.013 53.8232C147.586 54.4226 147.347 55.0014 147.217 55.7273C146.823 57.9103 146.984 60.2438 146.952 62.4555C146.892 65.0595 146.813 67.6633 146.714 70.2661C146.675 71.5569 146.723 73.3865 146.376 74.5923C145.97 74.7144 145.91 74.7106 145.487 74.6741C145.333 74.3776 145.572 53.9082 145.788 52.7477C145.884 52.6902 145.982 52.6359 146.082 52.5848C146.98 52.1199 147.624 51.8889 148.596 51.6211C153.872 50.1679 159.026 48.3024 164.268 46.7506C166.026 46.2305 167.543 45.8209 169.24 45.1045C170.135 43.8041 171.318 39.5653 172.379 39.237C176.993 37.8085 182.059 36.5341 186.636 34.9839Z" fill="#D3C063"/>
<path d="M24.6228 89.1918C27.6464 90.0953 30.3982 91.0902 33.4801 91.9052C33.6468 96.1816 33.5054 101.218 33.4575 105.524C32.472 105.113 31.0461 104.714 29.993 104.391C26.9643 103.481 22.654 102.681 19.4912 101.861C19.7822 101.587 20.0669 101.306 20.3451 101.019C23.7103 97.5267 24.7064 93.9015 24.6228 89.1918Z" fill="#F4F4F6"/>
<path d="M49.7992 25.1492C50.1403 25.547 52.7252 30.1829 53.108 30.8557L60.3945 43.7096C61.7425 46.0831 63.7155 49.76 65.3046 51.8233C65.4197 53.841 65.3339 55.9731 65.2903 58.0014L64.008 56.2677C63.4168 55.3121 62.7808 54.3165 62.1543 53.386C56.8759 45.5475 51.9205 37.3849 46.6172 29.5757C47.6885 28.1079 48.7493 26.6324 49.7992 25.1492Z" fill="#F4F4F6"/>
<path d="M49.8282 126.949C51.0709 127.441 52.2929 127.726 53.5461 128.161L63.6848 131.667C69.8902 133.837 76.107 135.976 82.3351 138.081C87.41 139.74 92.5244 141.475 97.5489 143.293C98.5934 143.671 99.1059 144.355 98.4352 145.432C97.8571 145.668 98.0307 145.6 97.3221 145.417C93.8657 144.29 90.1317 142.794 86.5872 141.622C77.9365 138.762 69.2694 135.789 60.7064 132.676C56.4892 131.143 51.3788 129.899 47.4194 128.001C48.4031 127.67 48.9401 127.523 49.8282 126.949Z" fill="#D3C063"/>
<path d="M32.8284 109.975L33.2011 109.919L33.4049 110.121C33.59 110.988 33.5234 112.598 33.5147 113.556C30.4956 114.014 26.7128 115.236 23.7047 116.106C19.8029 117.235 15.4436 118.07 11.6284 119.234L10.6318 117.823C9.80504 116.656 9.23214 115.821 8.25293 114.788C10.4221 114.2 12.961 113.828 15.1973 113.39C21.0681 112.238 26.9511 111.111 32.8284 109.975Z" fill="#F4F4F6"/>
<path d="M46.1999 85.7279C47.1758 85.8982 47.7798 86.1751 48.6851 86.5418C48.9886 89.2058 48.6934 95.4842 48.7247 98.5793L48.7587 116.082C48.7627 117.561 49.0997 125.062 48.5108 125.892C48.2672 126.011 48.021 126.126 47.7727 126.236C47.1859 126.491 46.8605 126.582 46.3117 126.365C46.1556 125.74 46.2674 119.571 46.2565 118.524C46.1288 107.592 46.1098 96.6597 46.1999 85.7279Z" fill="#D3C063"/>
<path d="M161.835 37.5568L162.083 37.7506C162.387 39.0881 162.367 39.7533 160.943 40.1505C154.239 42.0211 147.572 43.971 140.903 45.9608C137.148 47.0808 133.251 48.3573 129.438 49.1642L129.101 48.9946C128.888 48.1521 129.004 46.932 129.042 46.0336C130.238 45.5458 133.286 44.895 134.811 44.4646C143.604 41.9834 153.091 40.0535 161.835 37.5568Z" fill="#F4F4F6"/>
<path d="M4.15816 115.554C7.00985 115.109 8.10706 117.463 9.38816 119.56C7.21773 119.891 6.58646 119.787 5.02052 121.306C4.25006 123.968 4.39699 125.537 4.95645 128.201C5.98422 133.095 9.91662 131.177 13.3214 130.171L12.9013 132.856C12.5511 137.025 8.17028 136.749 5.91964 134.146C1.94069 129.546 -0.824421 120.4 4.15816 115.554Z" fill="#F4F4F6"/>
<path d="M19.7184 80.0711C22.8879 79.9931 22.9628 83.6496 23.4395 86.1373C21.8381 85.4116 19.6348 84.4482 18.0283 85.71C15.88 87.3978 14.5768 91.057 14.6445 93.7624C14.6686 94.7257 15.5594 95.3171 16.2418 95.8938C17.4034 95.9846 20.2925 96.5106 20.7852 97.6121L20.5276 98.1589C20.0891 98.6197 19.6518 99.0725 19.1944 99.5098C15.7625 102.791 13.3244 99.7375 12.7588 96.1014C11.8432 90.2145 14.0431 82.7995 19.7184 80.0711Z" fill="#F4F4F6"/>
<path d="M43.7095 20.5631C43.929 20.5425 44.1491 20.5265 44.3694 20.5151C47.1693 20.3765 48.9265 21.6194 47.7398 24.5977C47.2469 25.8342 46.2987 26.634 45.3625 27.5616C44.4067 25.3803 44.3303 25.0437 42.1794 24.0638C39.1469 24.1858 34.664 26.0281 33.7064 29.3473C33.3994 30.4111 33.9985 31.1629 34.5481 32.0359C35.0287 32.8243 35.6625 33.7382 36.1774 34.5196C30.7931 35.7498 27.3761 34.5449 31.2167 28.4499C33.8318 24.3 38.8914 21.4735 43.7095 20.5631Z" fill="#F4F4F6"/>
<path d="M162.551 130.792L162.926 130.844C163.259 131.323 163.346 131.416 163.386 132.013C162.7 133.259 129.999 143.473 126.672 145.054C126.491 145.14 125.566 145.502 125.344 145.593C124.858 145.568 125.042 145.636 124.654 145.331C124.471 144.74 124.414 144.622 124.61 144.005C125.598 142.558 148.919 135.566 152.419 134.104C153.741 133.551 161.026 131.087 162.551 130.792Z" fill="#CBB771"/>
<path d="M172.282 47.8815L172.48 48.1134C172.281 48.8802 171.879 49.3971 171.441 50.0489C166.799 52.3299 156.736 54.2815 151.736 57.0154C151.47 57.3011 151.247 57.8349 151.206 58.2186C150.671 63.3113 149.838 68.3317 149.474 73.4371C149.474 73.4371 149.023 73.9607 148.981 74.0098C148.58 73.5432 148.513 72.5508 148.577 71.9736C148.912 68.9578 148.22 57.5424 149.348 55.3097C151.13 54.1253 169.199 48.7447 172.282 47.8815Z" fill="#F4F4F6"/>
<path d="M161.547 41.1796C161.693 41.1658 161.994 41.2033 162.154 41.2172L162.33 41.5023L162.17 41.9556C160.668 43.3256 152.147 45.602 149.748 46.4596C143.144 48.8195 136.457 51.0301 129.854 53.3996C129.32 53.3853 129.493 53.4664 129.134 53.1585C128.863 52.3454 128.99 51.1354 129.027 50.2459C130.182 50.0207 131.228 49.7451 132.358 49.4407C142.124 46.8112 151.697 43.4584 161.547 41.1796Z" fill="#F4F4F6"/>
<path d="M162.022 34.8726L162.399 35.1625L162.455 35.6048C162.165 36.137 161.868 36.502 161.232 36.6544C155.322 38.071 149.467 39.6885 143.589 41.2477C139.029 42.4575 133.767 43.3121 129.376 44.9396L129.169 44.8315C128.9 44.2616 128.951 42.8531 128.937 42.157C132.953 41.4653 137.869 40.128 141.876 39.1903C148.486 37.6437 155.464 36.4437 162.022 34.8726Z" fill="#F4F4F6"/>
<path d="M221.354 19.2687C221.502 19.2678 221.651 19.2696 221.801 19.2745C227.377 19.4553 234.867 25.7338 235.107 31.6214C235.185 33.5596 231.936 34.4962 230.724 32.9705C230.774 32.3997 230.881 32.4639 231.355 31.9369C234.702 28.291 228.24 24.007 225.336 22.6937C224.043 24.0379 223.09 25.2091 221.68 26.5843C220.212 23.854 218.06 21.3613 221.354 19.2687Z" fill="#F4F4F6"/>
<path d="M192.463 1.77153C195.469 1.53434 199.207 2.24087 201.925 3.66817C203.373 4.42857 207.27 6.91679 206.017 8.9764C205.301 10.1555 203.648 10.4139 202.378 10.7096C203.006 9.65577 203.23 9.0395 203.672 7.90085C203.268 7.3754 202.407 6.55748 201.912 6.06088C200.215 4.74186 195.491 3.39517 193.397 4.21766C192.092 4.73 192.975 8.1272 191.719 8.90004C190.041 8.96435 187.927 6.30914 187.638 4.75474C187.162 2.20105 190.756 1.97871 192.463 1.77153Z" fill="#F4F4F6"/>
<path d="M143.363 59.8213L143.607 59.923C143.824 60.5822 143.728 61.8201 143.711 62.5589C141.982 62.8626 140.464 63.5372 138.812 63.9855C134.83 65.0662 130.104 66.784 126.141 67.538L125.898 67.3639C125.688 66.803 125.749 65.3322 125.749 64.662C131.93 62.6525 137.491 61.6296 143.363 59.8213Z" fill="#F4F4F6"/>
<path d="M69.9512 43.7048C73.9778 43.8806 82.2905 46.6027 86.3972 47.6908C89.2892 48.4571 92.4484 49.2542 95.343 50.0279L113.015 54.8057C116.621 55.7676 122.695 57.8275 126.219 58.2425L126.294 58.5954C124.445 59.0658 120.312 57.6599 118.297 57.1323C111.943 55.4789 105.605 53.7595 99.2867 51.9743L79.6658 46.7388C78.0007 46.2941 70.9178 44.7282 69.9512 43.7048Z" fill="#86A1A9"/>
<path d="M143.355 63.8086C143.556 63.8517 143.491 63.8559 143.684 64.0323C143.7 64.4593 143.791 65.0842 143.649 65.4851C143.341 66.3562 128.158 70.9959 126.195 71.7492L125.938 71.6422C125.684 71.0424 125.763 69.5141 125.763 68.7902C131.175 66.9593 137.754 65.3726 143.355 63.8086Z" fill="#F4F4F6"/>
<path d="M223.522 57.9836C223.783 58.0978 223.675 58.0073 223.816 58.3053C222.152 61.2006 218.335 66.6475 217.206 69.1868L216.453 67.1219C216.151 65.7151 214.462 62.7792 213.718 61.4014C215.409 60.9771 221.959 58.6402 223.522 57.9836Z" fill="#D3C063"/>
<path d="M165.098 43.2148L165.602 43.4405L165.65 43.6944C164.532 44.7089 133.7 54.757 129.627 56.4263C129.505 56.4573 129.319 56.418 129.183 56.4015L128.987 56.0055C129.032 55.3259 128.942 55.5722 129.285 55.0316C131.227 54.2948 133.686 53.6738 135.737 52.9976L148.569 48.6307L159.149 45.0015C160.984 44.3793 163.255 43.4378 165.098 43.2148Z" fill="#CBB771"/>
<path d="M143.253 74.8574L143.59 74.9457L143.415 75.23C141.159 76.3214 139.135 77.4334 136.983 78.6699C135.679 79.4196 133.19 79.8239 131.684 80.297C129.373 81.0228 126.935 81.7911 124.553 82.2618C124.275 82.2503 124.32 82.2365 124.056 82.108C123.829 81.388 123.957 80.3017 124 79.5175C125.717 78.9696 127.146 78.7702 128.842 78.3378C133.622 77.0817 138.427 75.9212 143.253 74.8574Z" fill="#F4F4F6"/>
<path d="M143.498 56.5913L143.615 56.7366C144.163 59.2756 142.921 58.9567 140.894 59.4951C135.948 60.8086 130.971 61.9779 126.002 63.1877C125.653 62.6528 125.754 61.4518 125.756 60.7649C130.504 59.4573 138.611 57.6222 143.498 56.5913Z" fill="#F4F4F6"/>
<path d="M24.3193 81.7628C26.863 82.4859 30.122 84.6626 33.4733 85.5969C33.5104 87.0732 33.4635 88.6906 33.4492 90.1781C31.9614 89.8498 26.7727 87.8634 25.0632 87.1833C24.9593 85.289 24.6415 83.6239 24.3193 81.7628Z" fill="#F4F4F6"/>
<path d="M7.12236 121.683C11.0012 121.596 12.5498 124.636 13.039 128.026C12.3701 128.318 11.5857 128.599 10.8976 128.865C9.90501 129.277 8.8791 129.516 7.83984 129.789C6.53521 127.853 5.07381 123.422 7.12236 121.683Z" fill="#F4F4F6"/>
<path d="M69.2329 62.3719C70.481 62.5228 77.3758 64.6464 79.1664 65.118L110.804 73.6329L118.617 75.6393C120.938 76.2599 122.209 76.8592 124.624 77.1392L124.622 77.4396C122.345 78.0749 116.53 75.8757 114.008 75.2115L85.6394 67.4805L76.1762 64.8664C74.925 64.5307 69.5715 63.5378 69.2329 62.3719Z" fill="#CBB771"/>
<path d="M19.443 86.8862C19.5447 86.8893 19.7134 86.8965 19.8057 86.9244C23.917 88.1685 22.6459 92.5139 22.0099 95.5339L20.756 95.0177C17.4246 93.7135 15.0757 95.3915 17.3013 89.9089C17.9194 88.3865 18.0998 87.9298 19.443 86.8862Z" fill="#F4F4F6"/>
<path d="M40.9521 25.9957C45.9749 26.1499 41.8448 32.3524 38.0789 33.6163C36.8485 32.3606 36.271 31.2828 35.3516 29.7867C37.0136 27.9325 38.4338 26.3986 40.9521 25.9957Z" fill="#F4F4F6"/>
<path d="M112.008 80.9609C115.611 80.9879 116.183 83.2041 116.076 86.2389L113.97 86.855L111.785 87.6543C110.073 84.9669 108.799 83.0218 112.008 80.9609Z" fill="#74777B"/>
<path d="M225.649 25.1492C227.777 25.27 229.888 28.4858 230.907 30.1482C229.614 30.7923 229.126 31.0138 228.148 32.0849C227.046 32.3716 223.732 28.7469 223.046 28.0033C223.993 26.8408 224.574 26.1906 225.649 25.1492Z" fill="#F4F4F6"/>
<path d="M194.613 5.65802C196.11 5.80238 200.873 6.66872 201.353 8.22031C201.237 8.9059 200.488 10.035 200.108 10.6814C199.061 11.1899 195.253 10.3111 193.865 10.1046C193.99 8.91862 194.164 6.69124 194.613 5.65802Z" fill="#F4F4F6"/>
<path d="M215.809 53.9517C217.4 54.5723 221.239 55.5704 223.056 56.1183C220.612 57.1125 219.052 57.6936 216.493 58.3522C215.286 58.8936 212.281 60.1893 211.407 58.7881C211.755 57.7199 213.934 57.7106 215.09 56.8006C215.333 56.0144 214.87 56.0998 214.752 54.9515C214.924 54.424 215.317 54.2662 215.809 53.9517Z" fill="#D3C063"/>
<path d="M143.202 67.551C143.513 67.6766 143.412 67.6275 143.627 67.9578L143.529 68.3708C142.505 69.4304 128.373 74.0159 126.184 74.6206L125.75 74.5712L125.663 74.303C125.837 73.9265 126.151 73.6597 126.525 73.5052C131.754 71.3443 138.122 69.8863 143.202 67.551Z" fill="#86A1A9"/>
<path d="M132.646 74.5156C136.267 73.2147 140.198 72.0002 143.673 70.4691C143.681 71.2927 143.71 72.2089 143.691 73.0235C141.935 73.5374 135.333 74.9924 133.344 75.293C132.968 75.1062 132.91 74.8946 132.646 74.5156Z" fill="#D3C063"/>
<path d="M135.225 56.2546C136.187 55.9082 143.231 53.568 143.664 53.6532L143.791 53.933C143.174 55.2438 137.612 56.2823 136.002 56.6823L135.225 56.2546Z" fill="#86A1A9"/>
<path d="M124.861 77.6323C127.268 75.9498 129.842 75.4732 132.642 74.5232C132.905 74.9022 132.964 75.1138 133.34 75.3006C130.411 75.8213 127.814 77.033 124.861 77.6323Z" fill="#CBB771"/>
<path d="M130.958 57.994C132.466 56.8645 133.408 56.7448 135.227 56.246L136.005 56.6737C134.354 57.0062 132.592 57.5374 130.958 57.994Z" fill="#888787"/>
<path d="M50.46 67.4228C51.0813 67.3714 51.1553 67.3804 51.7578 67.5442C52.2221 67.8872 52.2398 68.0743 52.4004 68.6113C51.5017 68.3665 50.7626 68.3379 50.46 67.4228Z" fill="#C9C7C1"/>
<path d="M76.3042 70.6819C77.1629 70.8508 77.9255 71.0367 78.7706 71.2501C79.5788 72.1852 80.4027 73.2991 79.4135 74.4093C78.8564 74.6149 78.7735 74.6514 78.1706 74.5662C77.6795 74.4219 77.4787 74.3514 76.952 74.3188C76.441 74.965 77.3762 75.5701 76.4777 75.9636C76.0395 75.5138 76.3082 71.6088 76.3042 70.6819Z" fill="#0B0A09"/>
<path d="M76.973 71.4647C78.4762 71.7931 79.4681 72.2863 79.1812 73.9879C78.4852 74.0191 77.579 73.7687 76.8795 73.6117L76.973 71.4647Z" fill="#F4F4F6"/>
<path d="M86.8275 73.6251C87.9369 74.2233 88.8662 78.2706 88.9339 79.5235L88.7797 79.6863C88.2394 79.1406 88.185 78.7378 87.9721 77.987C86.2685 77.5707 86.5607 77.6121 84.9149 77.9648C85.0232 76.7082 86.221 74.9084 86.8275 73.6251Z" fill="#0B0A09"/>
<path d="M86.7799 74.7939C87.3446 75.0835 87.7412 76.4319 87.6659 77.0393L87.3368 77.2692C86.6403 77.0913 86.6752 77.2111 86.2403 76.765C86.1041 76.1694 86.5307 75.3907 86.7799 74.7939Z" fill="#F4F4F6"/>
<path d="M90.2384 74.525C90.8211 74.8142 92.969 78.9272 93.4468 79.7701C93.4518 77.9164 93.4268 77.3811 93.8376 75.5553C94.3303 76.2788 93.9702 79.8882 93.8561 80.8105L93.8697 81.1501C92.9956 81.1055 91.7539 77.3965 90.9116 76.8846C90.3396 77.5756 90.9936 79.2304 90.4202 79.9847L90.1792 80.0123C89.7343 79.2407 90.1649 75.6551 90.2384 74.525Z" fill="#0B0A09"/>
<path d="M80.9876 72.0243L81.3611 72.1566C82.005 72.904 81.5928 75.8324 81.5138 76.9298C82.6629 77.1523 83.6357 77.205 84.3907 78.1112C83.364 78.2278 81.9129 77.6234 80.9319 77.2655C80.8592 75.7172 80.8081 73.5334 80.9876 72.0243Z" fill="#0B0A09"/>
</svg>
