<svg width="136" height="165" viewBox="0 0 136 165" fill="none" xmlns="http://www.w3.org/2000/svg">
<path d="M61.989 10.169C67.1067 -0.389728 79.4468 -3.27242 88.4424 4.11558C90.7534 6.01356 91.8241 7.77691 93.2821 10.2783C99.5101 6.30561 105.344 9.24328 107.318 16.0885C113.309 13.0618 121.608 16.4856 124.208 22.4025C125.57 25.5028 126.748 30.8182 124.157 33.5489C133.323 36.8334 137.265 44.2477 134.312 53.8351C133.248 57.2869 130.762 59.3242 128.064 61.5098C129.867 64.2219 130.655 67.0162 129.973 70.2769C129.422 72.8915 127.833 75.1702 125.568 76.5891C123.538 77.8679 121.828 78.1452 119.504 78.4734C118.916 82.0563 117.81 84.3577 114.736 86.5985C113.626 87.414 112.415 88.0829 111.134 88.5883C112.838 88.8658 118.218 89.3879 119.209 90.1884C119.336 92.3989 108.055 102.618 106.07 104.862C108.567 107.729 118.455 116.992 119.226 119.442L119.148 120.067C117.319 121.232 106.56 122.634 105.616 123.691C105.818 126.553 105.659 131.102 105.655 134.097C105.626 141.06 105.631 148.024 105.673 154.988C95.8779 157.26 86.2531 160.085 76.5014 162.512C73.486 163.262 70.4973 164.128 67.5143 164.998C61.3065 162.926 54.7322 161.666 48.4339 159.753C42.2522 157.875 35.7551 156.704 29.5539 154.806C29.8086 147.944 29.6458 141.008 29.6721 134.141C29.685 130.721 29.4411 126.646 29.7219 123.313C28.8918 123.389 16.3942 120.335 15.8853 119.892C15.9001 117.687 27.1338 107.232 29.3699 104.849C27.2003 102.783 16.4656 92.6954 15.9332 90.3747C16.6063 89.4135 21.7834 88.9889 23.1696 88.8071C21.1196 87.0743 19.4669 85.0001 18.9268 82.3049C18.6733 81.0408 15.6233 81.666 13.9896 80.9132C11.4354 79.7222 9.47023 77.5503 8.53956 74.8899C7.46087 71.858 7.82858 69.0354 9.19744 66.2021C-5.5325 59.1797 -1.92872 36.9473 15.4323 36.2349C15.2915 35.7575 15.1647 35.2763 15.0514 34.7916C14.75 33.4796 14.5773 32.1601 14.6539 30.8149C15.3669 18.2891 26.7908 10.6199 38.7067 14.2688C40.8824 14.9349 42.2646 15.8787 44.1137 17.0671C46.6085 8.80931 54.5959 6.50204 61.989 10.169Z" fill="#2A2927"/>
<path d="M61.989 10.169C67.1067 -0.389728 79.4468 -3.27242 88.4424 4.11558C90.7534 6.01356 91.8241 7.77691 93.2821 10.2783C99.5101 6.30561 105.344 9.24328 107.318 16.0885C107.092 17.0274 107.074 16.8975 107.63 17.9527C106.966 18.1101 106.778 18.1381 106.097 18.1808L105.778 17.8432C105.404 19.3321 103.195 20.2738 102.521 22.4303C96.9669 20.0198 89.5014 19.1115 83.8396 21.4491C73.9876 25.5164 70.9569 29.6737 66.8679 39.0558C66.4666 39.9841 66.1003 40.9275 65.7704 41.8838C65.1022 39.1604 60.5906 24.2195 59.2736 22.5947C58.6534 22.5621 58.5138 22.6922 57.9696 22.9786C51.8929 24.734 45.9476 27.0761 39.94 29.0798C36.0996 30.3608 31.7554 31.6258 28.1533 33.3837C26.3486 34.2643 24.2497 39.4012 23.429 41.1982L21.7695 44.0964C22.5522 46.8818 25.8559 55.7411 27.3885 57.999C28.0711 58.0697 42.8753 51.6425 45.2674 50.8324L44.84 50.5293C46.3949 49.78 47.9435 49.2718 49.5161 48.6146C50.9411 49.4024 54.0357 50.5988 55.5879 50.9254L54.3449 52.4679C55.3795 52.9002 56.3146 53.2914 57.3195 53.7888L57.4071 54.0825L56.9377 54.34C58.1386 54.4895 58.1618 54.2376 58.8707 55.2965C59.9442 56.2878 61.6284 61.0908 62.2076 62.5962C63.0696 65.0755 68.7415 80.3221 70.0796 81.7269C69.9609 83.6606 67.0933 89.0084 66.0728 91.0084C64.6948 90.109 62.9885 89.1952 61.5396 88.3726C60.6223 87.8954 60.97 87.9081 60.1026 88.0792C57.7072 89.9071 57.0932 92.6775 54.586 94.2423C52.9982 95.2334 49.775 95.1749 48.9738 96.6267C48.8761 97.7446 49.0694 97.856 48.4062 98.4998L47.7448 98.6504C48.393 98.9213 48.5854 98.8776 48.9637 99.3496C49.2257 101.124 49.3829 102.697 49.5448 104.475C48.4254 104.924 47.8554 105.098 47.2474 106.124C47.1773 106.83 47.1766 106.799 47.3576 107.487L47.5044 107.889C46.3096 108.149 43.4375 106.317 42.0677 106.749L41.9091 107.321C42.9507 108.961 45.66 107.816 46.9663 109.25C49.8056 109.969 53.6196 110.566 56.5603 111.174C59.0354 111.686 63.3454 112.606 65.695 112.805C65.3038 113.241 63.9556 114.675 63.7745 115.094C63.4841 116.445 54.3325 125.772 52.9526 126.788C52.961 127.591 52.852 127.351 53.2364 127.969C54.5388 127.769 63.6326 116.913 65.2209 116.265C61.2722 121.147 56.6236 124.889 53.3027 128.946C51.8772 128.096 32.3978 123.69 31.2999 124.168C30.8934 123.284 30.537 123.357 29.7219 123.313C28.8918 123.389 16.3942 120.335 15.8853 119.892C15.9001 117.687 27.1338 107.232 29.3699 104.849C27.2003 102.783 16.4656 92.6954 15.9332 90.3747C16.6063 89.4135 21.7834 88.9889 23.1696 88.8071C21.1196 87.0743 19.4669 85.0001 18.9268 82.3049C18.6733 81.0408 15.6233 81.666 13.9896 80.9132C11.4354 79.7222 9.47023 77.5503 8.53956 74.8899C7.46087 71.858 7.82858 69.0354 9.19744 66.2021C-5.5325 59.1797 -1.92872 36.9473 15.4323 36.2349C15.2915 35.7575 15.1647 35.2763 15.0514 34.7916C14.75 33.4796 14.5773 32.1601 14.6539 30.8149C15.3669 18.2891 26.7908 10.6199 38.7067 14.2688C40.8824 14.9349 42.2646 15.8787 44.1137 17.0671C46.6085 8.80931 54.5959 6.50204 61.989 10.169Z" fill="#799FAB"/>
<path d="M48.911 50.5964L49.5966 50.4093C50.028 50.6795 50.4664 50.9389 50.911 51.1873C51.9133 51.3271 53.3614 52.0392 54.3442 52.4676C55.3787 52.8999 56.3138 53.2911 57.3187 53.7885L57.4064 54.0822L56.9369 54.3397C58.1378 54.4891 58.1611 54.2373 58.8699 55.2962C59.9435 56.2875 61.6276 61.0905 62.2068 62.5959C63.0689 65.0751 68.7407 80.3217 70.0788 81.7265C69.9601 83.6602 67.0925 89.0081 66.0721 91.0081C64.6941 90.1086 62.9878 89.1949 61.5388 88.3723C60.6215 87.8951 60.9693 87.9078 60.1018 88.0788C57.7064 89.9068 57.0925 92.6772 54.5852 94.242C52.9974 95.2331 49.7743 95.1746 48.9731 96.6264C48.8753 97.7443 49.0687 97.8557 48.4054 98.4994L47.744 98.65C48.3923 98.921 48.5847 98.8773 48.963 99.3493C49.2249 101.123 49.3821 102.696 49.544 104.475C48.4247 104.923 47.8547 105.097 47.2466 106.124C47.1766 106.83 47.1759 106.799 47.3568 107.486C46.9987 107.428 45.6059 106.899 44.9811 106.747C42.2444 106.08 39.1089 105.665 36.5034 104.674C35.7779 102.259 33.9931 99.1254 33.0021 96.5568C31.3167 92.1885 29.6469 87.7795 27.99 83.4006C25.6731 77.2781 21.2904 68.4815 19.7695 62.3788C23.6452 60.4039 30.6058 58.1979 34.898 56.3084C37.2731 55.2626 47.0018 50.9756 48.911 50.5964Z" fill="#FDFDFD"/>
<path d="M50.912 51.1876C51.9143 51.3274 53.3624 52.0396 54.3452 52.4679C55.3797 52.9002 56.3148 53.2914 57.3198 53.7888L57.4074 54.0825L56.9379 54.34C58.1388 54.4895 58.1621 54.2376 58.8709 55.2965C56.6508 56.14 54.4396 57.008 52.2383 57.8996C51.6166 57.3294 50.9973 55.9737 50.5781 55.1739C51.0995 54.0994 50.9968 54.2578 51.9049 53.813C51.6535 53.0146 51.2238 51.9898 50.912 51.1876Z" fill="#090908"/>
<path d="M50.9104 51.1876C51.9127 51.3274 53.3608 52.0396 54.3436 52.4679C55.3781 52.9002 56.3132 53.2914 57.3182 53.7888L57.4058 54.0825L56.9364 54.34C55.8384 54.4843 53.9071 55.5682 52.8373 56.1017L51.9033 53.813C51.6519 53.0146 51.2222 51.9898 50.9104 51.1876Z" fill="#C5C5C5"/>
<path d="M48.9632 99.3519C47.3871 99.9994 41.0994 102.358 39.7703 102.22C40.5684 101.159 46.1566 99.2565 47.7443 98.6526C48.3925 98.9236 48.5849 98.8799 48.9632 99.3519Z" fill="#191814"/>
<path d="M48.9114 50.5964L49.597 50.4093C50.0284 50.6795 50.4668 50.9389 50.9113 51.1873C51.2231 51.9894 51.6529 53.0143 51.9043 53.8127C50.9961 54.2575 51.0988 54.0991 50.5775 55.1736C50.0732 53.2636 49.6865 52.3675 48.9114 50.5964Z" fill="#1F1E1E"/>
<path d="M49.7736 61.6868C51.4495 61.2354 52.6676 60.7826 54.0907 59.7415L59.1738 72.152C60.002 74.19 61.0685 77.1455 62.0266 78.9942C62.8165 78.841 63.5536 78.6077 64.3062 78.8086L64.3158 79.2115C62.618 80.2159 55.761 82.8214 53.4279 83.7086C48.1947 85.6987 40.3224 89.6018 35.1395 91.0353C33.856 87.8603 26.5095 70.1985 26.6959 67.8809L26.9719 68.0198L26.7452 67.8325L26.6787 68.1852L27.0565 68.1312C29.3814 72.6031 31.0806 78.5597 33.0449 83.2821C33.8021 85.1031 34.6922 87.9991 35.8427 89.5431C36.6707 89.6516 36.2842 89.7127 37.0417 89.3429C37.8676 87.9143 36.1376 84.1766 35.3404 82.9257C37.2913 81.7413 38.1282 81.5277 40.2832 80.8543L40.502 80.8489C41.2176 80.3581 40.9805 80.5726 41.3957 79.7425C40.8436 78.2331 40.4935 77.1848 40.0948 75.6315C41.6079 74.9038 43.105 74.1435 44.585 73.3507C45.2822 75.9101 46.6529 78.3236 47.4954 80.844C47.8834 82.004 48.5887 84.1259 49.9522 84.3996C51.0844 83.054 45.9196 71.5345 44.8536 69.4939C46.3879 68.5087 47.8798 68.0999 49.5896 67.4719C51.552 71.4974 52.9404 75.756 54.4666 79.9552C54.7765 80.8083 55.5383 81.5193 56.4692 81.5568L56.862 81.3303C56.8982 81.1318 56.9344 80.933 56.9706 80.7345C54.6055 75.5051 52.9364 70.0064 50.6608 64.7346C50.2381 63.7553 49.9672 62.7344 49.7736 61.6868Z" fill="#090908"/>
<path d="M41.3947 79.7423C42.3123 81.5616 43.7789 84.2062 43.5188 86.1796L43.1748 86.6874C41.3785 86.685 40.3708 82.3094 40.2822 80.8541L40.501 80.8487C41.2167 80.3579 40.9796 80.5724 41.3947 79.7423Z" fill="#FDFDFD"/>
<path d="M53.367 61.2851C53.465 61.2717 53.722 61.3422 53.8357 61.3667C56.0753 67.4323 58.8276 73.5313 61.2397 79.6014L58.6883 80.585C58.4313 80.6209 58.3847 80.5535 58.0953 80.4532C57.1117 78.215 50.8353 63.9949 51.2658 62.4294C52.0329 61.8429 52.503 61.6686 53.367 61.2851Z" fill="#799FAB"/>
<path d="M48.5966 68.7988C48.9255 68.7018 48.8663 68.7554 49.2613 68.8421C50.3162 70.1823 53.1268 79.6393 54.7823 82.3148C53.6005 82.5979 53.1017 82.8211 51.9905 83.2924L51.6097 83.0903C50.7234 81.4052 46.6655 71.338 46.3142 69.7187C46.938 69.0928 47.7063 69.0188 48.5966 68.7988Z" fill="#799FAB"/>
<path d="M43.7015 75.1459L43.8417 75.1506C44.763 75.7921 47.5148 83.5248 48.0136 85.0353C47.0996 85.2944 46.22 85.6906 45.3429 86.0592L44.9787 86.027C44.2311 84.4578 41.4172 77.6076 41.4167 76.1826C42.0431 75.5094 42.7896 75.4098 43.7015 75.1459Z" fill="#799FAB"/>
<path d="M38.7933 82.4626L39.358 82.3488C40.4308 83.0678 40.9829 86.4749 41.3201 87.8438L38.8509 88.4389L38.5018 88.2505C38.135 87.411 36.4048 83.6512 36.5521 83.077C37.1905 82.6054 37.9785 82.5852 38.7933 82.4626Z" fill="#799FAB"/>
<path d="M65.425 83.1082C65.9318 83.0412 65.6834 83.0154 66.186 83.2407L65.9724 83.6524C62.2321 85.5818 56.3526 87.9044 52.3912 89.4716C47.8643 91.2624 42.0641 93.7245 37.5438 95.1453C37.2651 95.0687 37.2545 95.0097 37.0022 94.8234L37.1359 94.4813C38.341 93.7586 46.9421 90.5796 48.9354 89.8832C53.8486 88.1668 60.7477 84.5532 65.425 83.1082Z" fill="#090908"/>
<path d="M54.8132 91.5661C55.2362 91.4534 55.0127 91.4731 55.5071 91.6735L55.3391 92.0473C54.2468 92.7966 40.5946 98.4577 39.1966 98.8914C38.4029 98.8639 38.7079 99.0133 38.1917 98.5843C38.7795 97.7462 53.0414 92.2503 54.8132 91.5661Z" fill="#090908"/>
<path d="M61.989 10.169C67.1067 -0.389728 79.4468 -3.27242 88.4424 4.11558C90.7534 6.01356 91.8241 7.77691 93.2821 10.2783C99.5101 6.30561 105.344 9.24328 107.318 16.0885C107.092 17.0274 107.074 16.8975 107.63 17.9527C106.966 18.1101 106.778 18.1381 106.097 18.1808L105.778 17.8432C105.01 13.0522 102.796 11.5109 98.1828 10.49C95.6361 11.1502 94.3546 12.3231 92.2731 13.8858C90.366 8.94324 88.0824 5.30916 83.0078 3.20206C74.1246 -0.486532 65.1861 4.8672 63.0158 13.781C61.3347 12.6253 59.3093 11.1051 57.4365 10.5198C52.1194 8.85795 47.6097 13.496 45.9065 18.0915C45.6553 18.7692 45.2403 19.6531 44.8834 20.2487C40.4284 16.6066 37.2184 14.7946 31.2259 15.2067C20.2606 15.9609 13.8571 28.4689 18.3589 38.1722C13.4276 38.3258 9.2886 38.4489 5.61716 42.3504C3.08926 44.9864 1.75212 48.5432 1.91753 52.1916C2.13228 58.2283 6.68998 63.3676 12.2242 65.3633C6.84035 73.5304 11.3856 79.9776 20.7811 79.7892C20.8189 84.907 22.4244 86.7495 27.4644 87.2747C26.2377 83.2365 24.6026 80.2271 23.2319 76.4906C21.3205 71.2795 19.3934 66.5226 17.3035 61.3953C19.5377 60.5528 25.3585 58.3141 27.3885 57.999C28.0711 58.0697 42.8753 51.6425 45.2674 50.8324L44.84 50.5293C46.3949 49.78 47.9435 49.2718 49.5161 48.6146C50.9411 49.4024 54.0357 50.5988 55.5879 50.9254L54.3449 52.4679C53.3621 52.0396 51.9141 51.3274 50.9117 51.1876C50.4672 50.9393 50.0288 50.6799 49.5974 50.4097L48.9118 50.5967C47.0025 50.9759 37.2739 55.2629 34.8987 56.3087C30.6065 58.1983 23.6459 60.4043 19.7703 62.3791C21.2912 68.4819 25.6738 77.2784 27.9907 83.4009C29.6477 87.7798 31.3175 92.1888 33.0028 96.5571C33.9939 99.1257 35.7786 102.26 36.5042 104.674C39.1096 105.665 42.2451 106.08 44.9819 106.747C45.6066 106.899 46.9995 107.429 47.3576 107.487L47.5044 107.889C46.3096 108.149 43.4375 106.317 42.0677 106.749L41.9091 107.321C42.9507 108.961 45.66 107.816 46.9663 109.25C49.8056 109.969 53.6196 110.566 56.5603 111.174C59.0354 111.686 63.3454 112.606 65.695 112.805C65.3038 113.241 63.9556 114.675 63.7745 115.094C63.4841 116.445 54.3325 125.772 52.9526 126.788C52.961 127.591 52.852 127.351 53.2364 127.969C54.5388 127.769 63.6326 116.913 65.2209 116.265C61.2722 121.147 56.6236 124.889 53.3027 128.946C51.8772 128.096 32.3978 123.69 31.2999 124.168C30.8934 123.284 30.537 123.357 29.7219 123.313C28.8918 123.389 16.3942 120.335 15.8853 119.892C15.9001 117.687 27.1338 107.232 29.3699 104.849C27.2003 102.783 16.4656 92.6954 15.9332 90.3747C16.6063 89.4135 21.7834 88.9889 23.1696 88.8071C21.1196 87.0743 19.4669 85.0001 18.9268 82.3049C18.6733 81.0408 15.6233 81.666 13.9896 80.9132C11.4354 79.7222 9.47023 77.5503 8.53956 74.8899C7.46087 71.858 7.82858 69.0354 9.19744 66.2021C-5.5325 59.1797 -1.92872 36.9473 15.4323 36.2349C15.2915 35.7575 15.1647 35.2763 15.0514 34.7916C14.75 33.4796 14.5773 32.1601 14.6539 30.8149C15.3669 18.2891 26.7908 10.6199 38.7067 14.2688C40.8824 14.9349 42.2646 15.8787 44.1137 17.0671C46.6085 8.80931 54.5959 6.50204 61.989 10.169Z" fill="#2A2927"/>
<path d="M31.0622 105.72C34.9622 107.114 42.857 108.737 46.9662 109.251C49.8054 109.97 53.6195 110.567 56.5602 111.175C59.0352 111.686 63.3453 112.607 65.6949 112.805C65.3036 113.241 63.9555 114.676 63.7743 115.095C62.979 115.734 61.1007 117.863 60.3204 118.685L52.7132 126.625C41.4092 123.906 29.9059 121.464 18.6296 118.724C21.9663 115.454 28.4859 109.016 31.0622 105.72Z" fill="#E6DC73"/>
<path d="M27.9902 89.7321L28.4033 89.7316C29.341 90.6834 32.9431 101.001 33.8007 103.186L31.1224 103.787L28.4037 101.07C25.0154 97.8442 22.0843 94.5013 18.8259 91.1726C21.7363 90.8728 25.189 90.5643 27.9902 89.7321Z" fill="#E6DC73"/>
<path d="M47.7441 98.6525L48.4055 98.5019C49.0688 97.8581 48.8754 97.7468 48.9731 96.6289C49.7743 95.1771 52.9975 95.2356 54.5853 94.2445C57.0926 92.6797 57.7065 89.9093 60.1019 88.0813C60.9694 87.9103 60.6216 87.8976 61.5389 88.3748C62.9879 89.1974 64.6941 90.1111 66.0722 91.0105L65.7045 91.8611C66.277 92.6614 67.132 92.7283 68.2023 93.0624C69.9083 92.4586 71.9155 91.9386 73.6747 91.4391C74.4578 93.6736 75.0193 95.4057 76.2157 97.4766C74.9813 96.9712 72.4357 95.689 71.3519 96.0182L70.9781 96.4308C71.1031 98.461 79.0627 99.2301 80.6108 100.314C80.6985 100.375 80.8759 101.248 80.8914 101.352C81.1494 100.457 81.2527 99.5806 80.9706 98.6904L81.0664 98.2806L81.6555 98.0736L82.159 98.3626C82.2483 99.4838 82.2943 101.609 82.7499 102.534L84.0013 102.606C83.1777 103.103 83.4458 102.812 83.0309 103.761L82.6303 103.652C82.0554 104.534 82.1063 107.221 83.0746 108.142C83.5323 108.201 83.9909 108.253 84.4503 108.296L87.7439 107.512C89.1189 107.427 90.9475 107.686 91.8094 107.553C92.4332 106.939 92.2389 107.211 92.4712 106.302C91.709 105.886 90.464 105.542 89.6062 105.266C89.9255 104.034 90.2222 102.492 91.2044 101.678L91.4334 100.959C91.4976 100.173 92.0448 98.4726 92.2887 97.634L95.463 98.7153C96.0207 98.6756 96.091 98.7235 96.533 98.375L96.3412 97.8964L96.7691 97.6234C97.3034 96.618 97.4392 95.6434 97.669 94.5297C97.755 94.5518 97.9434 94.4877 98.0498 94.4623L98.1741 93.7083L98.5301 93.2459C98.9819 94.7675 98.141 94.2447 98.4504 95.8126C97.9124 97.7519 95.4639 103.839 94.4475 105.603C93.6204 106.507 93.0382 106.94 92.9839 108.124C90.4971 108.887 84.1803 109.051 82.9827 110.386C80.8232 111.042 71.753 112.534 69.4436 112.866C73.3537 116.742 78.7288 122.521 82.5417 126.624C85.2038 126.006 95.2616 123.321 97.3372 123.314C99.739 124.023 106.987 119.903 108.767 122.356C106.78 122.588 106.053 122.882 104.174 123.475L104.056 123.731L104.233 123.685C105.088 123.474 104.96 123.394 105.615 123.693C105.817 126.556 105.659 131.104 105.654 134.099C105.625 141.063 105.631 148.026 105.672 154.99C95.8772 157.262 86.2524 160.087 76.5007 162.514C73.4853 163.264 70.4966 164.131 67.5136 165C61.3058 162.928 54.7315 161.668 48.4332 159.756C42.2515 157.877 35.7544 156.706 29.5532 154.808C29.8079 147.946 29.6451 141.01 29.6714 134.144C29.6843 130.723 29.4404 126.648 29.7212 123.316C30.5363 123.359 30.8927 123.286 31.2992 124.17C32.3972 123.692 51.8765 128.098 53.302 128.948C56.6229 124.891 61.2715 121.149 65.2202 116.268C63.6319 116.916 54.5381 127.771 53.2357 127.971C52.8514 127.353 52.9604 127.593 52.9519 126.79C54.3318 125.775 63.4834 116.447 63.7738 115.096C63.955 114.677 65.3031 113.243 65.6943 112.807C63.3448 112.608 59.0347 111.688 56.5597 111.176C53.619 110.569 49.8049 109.972 46.9657 109.252C45.6593 107.818 42.95 108.964 41.9085 107.323L42.067 106.751C43.4368 106.319 46.309 108.151 47.5037 107.891L47.3569 107.489C47.176 106.801 47.1767 106.832 47.2467 106.126C47.8548 105.1 48.4248 104.926 49.5441 104.477C49.3822 102.699 49.225 101.126 48.963 99.3518C48.5848 98.8797 48.3923 98.9234 47.7441 98.6525Z" fill="#191814"/>
<path d="M65.2198 116.268L66.0788 115.581L66.4132 115.687C66.7515 119.294 66.608 124.903 66.6059 128.618L66.6042 152.403C66.6033 155.272 66.4108 159.789 66.526 162.472C59.4173 160.935 52.6677 158.821 45.6371 156.999C40.8564 155.76 36.2618 154.378 31.3641 153.665L31.3825 133.874C31.3839 131.631 31.5218 126.109 31.2988 124.17C32.3968 123.692 51.8761 128.098 53.3016 128.948C56.6225 124.891 61.2711 121.15 65.2198 116.268Z" fill="#E6DC73"/>
<path d="M47.7441 98.6525L48.4055 98.5019C49.0688 97.8581 48.8754 97.7468 48.9732 96.6289C49.7744 95.1771 52.9975 95.2356 54.5854 94.2445C57.0926 92.6797 57.7065 89.9093 60.1019 88.0813C60.9694 87.9103 60.6217 87.8976 61.5389 88.3748C62.9879 89.1974 64.6942 90.1111 66.0722 91.0105L65.7045 91.8611C66.2771 92.6614 67.1321 92.7283 68.2023 93.0624C69.9083 92.4586 71.9156 91.9386 73.6747 91.4391C74.4578 93.6736 75.0194 95.4057 76.2158 97.4766C74.9813 96.9712 72.4358 95.689 71.3519 96.0182L70.9781 96.4308C71.1031 98.461 79.0628 99.2301 80.6109 100.314C80.6985 100.375 80.8759 101.248 80.8914 101.352C80.4652 103.727 81.2321 106.808 80.1078 108.808C79.337 109.361 79.6948 109.228 78.7521 109.315C78.2355 108.911 78.3382 108.47 78.2141 107.648C78.133 108.4 78.0985 108.603 77.8624 109.32C77.0196 109.273 77.728 108.328 75.9162 107.444C76.3755 108.313 76.5654 108.327 76.4843 109.201C75.2828 110.461 71.8336 110.433 69.6671 111.131L69.4516 111.437C67.5813 112.056 59.2749 110.762 58.1003 109.722C55.6831 109.093 51.7412 108.693 49.5648 107.667C49.2906 107.538 49.362 107.337 49.3322 106.962C50.4793 105.026 55.1023 103.057 57.372 100.715L57.341 100.285C55.2428 100.337 52.7837 102.221 51.1832 103.394C50.4929 104.2 50.608 104.308 49.5441 104.477C49.3823 102.699 49.2251 101.126 48.9631 99.3518C48.5848 98.8797 48.3924 98.9234 47.7441 98.6525Z" fill="#FDFDFD"/>
<path d="M47.7441 98.6525L48.4055 98.5019C49.0688 97.8581 48.8754 97.7468 48.9732 96.6289C49.7744 95.1771 52.9975 95.2356 54.5854 94.2445C57.0926 92.6797 57.7065 89.9093 60.1019 88.0813C60.9694 87.9103 60.6217 87.8976 61.5389 88.3748C61.5382 88.7848 61.566 89.851 61.4908 90.1936C61.3061 92.5556 61.1489 94.9651 60.9396 97.3196C62.4109 98.0849 65.4169 99.4587 66.2028 100.852C65.1218 101.667 60.8536 99.0216 59.5832 98.4549L59.5564 91.3813C56.5393 95.565 55.9505 96.1176 50.9487 97.7212C51.0446 99.1288 51.0441 102.285 51.1832 103.394C50.4929 104.2 50.608 104.308 49.5441 104.477C49.3823 102.699 49.2251 101.126 48.9631 99.3518C48.5848 98.8797 48.3924 98.9234 47.7441 98.6525Z" fill="#262523"/>
<path d="M58.0999 109.722C57.6538 108.172 56.401 106.739 56.197 105.294C56.7276 104.756 56.4082 104.927 57.2238 104.839C58.8398 105.581 59.154 108.026 60.2103 109.693C63.4577 110.891 66.2222 111.37 69.6666 111.131L69.4512 111.437C67.5809 112.056 59.2745 110.761 58.0999 109.722Z" fill="#2A2927"/>
<path d="M71.4399 101.693L72.0208 101.428C73.0222 101.862 77.6341 106.389 78.2135 107.647C78.1325 108.399 78.0979 108.602 77.8618 109.318C77.019 109.272 77.7274 108.327 75.9156 107.443C74.9448 105.985 73.5947 104.776 72.3236 103.578C71.9839 103.276 71.9237 102.514 71.4399 101.693Z" fill="#090908"/>
<path d="M71.4415 101.692C71.9253 102.513 71.9854 103.275 72.3252 103.577C70.7909 104.616 68.8849 108.567 67.3126 108.026L67.0527 107.428C67.6202 105.595 70.4784 103.585 71.4415 101.692Z" fill="#191814"/>
<path d="M61.5391 88.3733C62.9881 89.1959 64.6944 90.1096 66.0724 91.009L65.7047 91.8596C66.2773 92.6598 67.1323 92.7268 68.2025 93.0609C66.4206 93.6093 63.1514 91.1216 61.491 90.1921C61.5662 89.8495 61.5384 88.7833 61.5391 88.3733Z" fill="#2A2927"/>
<path d="M91.2049 101.678C92.6029 102.462 93.1886 102.65 94.7311 103.155C94.1841 104.182 93.4771 105.925 92.4718 106.301C91.7096 105.886 90.4645 105.541 89.6067 105.266C89.926 104.034 90.2227 102.492 91.2049 101.678Z" fill="#FDFDFD"/>
<path d="M92.2886 97.6321L95.4629 98.7134L96.0148 99.0547C96.0596 99.9948 95.3198 101.28 94.8898 102.209C93.6824 101.804 92.6128 101.435 91.4333 100.957C91.4975 100.171 92.0447 98.4706 92.2886 97.6321Z" fill="#FDFDFD"/>
<path d="M82.7508 102.533L84.0022 102.604C83.1787 103.102 83.4467 102.811 83.0318 103.76L82.6312 103.65C82.0563 104.533 82.1073 107.22 83.0755 108.14C83.5332 108.2 83.9918 108.251 84.4512 108.295C84.1187 108.601 83.3077 108.672 82.8126 108.761C80.7006 107.774 81.8735 104.571 82.1714 103.075L82.2088 102.882L82.7508 102.533Z" fill="#2A2927"/>
<path d="M68.789 115.122C68.7773 115.118 81.6059 128.534 81.9013 128.949C85.13 127.62 99.825 124.581 103.769 123.933C104.18 133.164 103.942 144.026 103.931 153.375L101.103 154.121C98.2935 154.642 95.4106 155.597 92.6205 156.258C84.4181 158.201 76.9481 160.651 68.707 162.453C68.7451 160.372 68.5188 158.228 68.5475 156.13C68.7336 142.522 68.2004 128.703 68.789 115.122Z" fill="#E6DC73"/>
<path d="M23.4278 41.1976C24.2485 39.4007 26.3474 34.2638 28.1521 33.3832C31.7542 31.6252 36.0984 30.3602 39.9387 29.0792C45.9464 27.0755 51.8917 24.7335 57.9684 22.9781C58.3483 23.7633 58.3058 23.4038 58.0523 24.3211C59.3349 26.0088 64.6193 42.6363 65.449 45.5977C66.1325 48.037 66.7612 52.8508 68.0732 55.7318C69.5111 58.8899 71.2404 60.8567 73.282 63.6212C73.4683 63.8738 73.5003 64.3769 73.4852 64.6912L74.1419 64.9833C74.0867 66.6078 73.0454 66.8977 73.1121 69.0306C72.3934 72.0447 68.7816 77.2227 70.8457 79.8974C70.7165 81.1145 70.8734 80.6385 70.0783 81.7263C68.7403 80.3215 63.0684 65.0749 62.2063 62.5956C61.6272 61.0903 59.943 56.2873 58.8695 55.296C58.1606 54.237 58.1373 54.4889 56.9365 54.3395L57.4059 54.082L57.3183 53.7883C56.3134 53.2909 55.3782 52.8997 54.3437 52.4673L55.5866 50.9248C54.0345 50.5983 50.9399 49.4018 49.5149 48.614C47.9423 49.2712 46.3937 49.7794 44.8388 50.5287L45.2662 50.8318C42.8741 51.6419 28.0699 58.0692 27.3873 57.9985C25.8547 55.7405 22.551 46.8812 21.7683 44.0958L23.4278 41.1976Z" fill="#FDFDFD"/>
<path d="M23.4277 41.1976C24.2484 39.4007 26.3473 34.2638 28.152 33.3832C31.7541 31.6252 36.0983 30.3602 39.9387 29.0792C45.9463 27.0755 51.8916 24.7335 57.9683 22.9781C58.3482 23.7633 58.3057 23.4038 58.0522 24.3211L39.0435 31.0345C36.6784 31.87 31.2093 33.9842 28.9631 34.4313C28.4659 34.8895 27.8109 35.3655 27.6316 35.9839L27.6675 36.3105C28.0475 36.9921 28.1642 37.228 28.4124 37.9658C28.684 38.8203 29.4354 40.4164 29.3722 41.0172L29.0693 41.2984C27.8123 41.785 26.032 42.6283 24.728 42.417L24.3441 41.9288C24.2059 42.0195 24.0802 41.9953 23.8789 42.0113L23.4277 41.1976Z" fill="#090908"/>
<path d="M27.6692 36.3119C28.0491 36.9935 28.1659 37.2294 28.414 37.9672C28.6856 38.8217 29.437 40.4178 29.3738 41.0185L29.0709 41.2998C27.8139 41.7864 26.0336 42.6297 24.7296 42.4184L24.3457 41.9302C25.9392 40.105 26.7136 38.4883 27.6692 36.3119Z" fill="#C5C5C5"/>
<path d="M62.2068 62.5957C62.7902 62.3471 63.024 61.9547 63.4314 61.4597C65.5918 67.171 66.537 69.3996 69.3817 74.755C70.024 72.7698 72.2458 66.1475 73.4857 64.6913L74.1424 64.9833C74.0872 66.6078 73.0458 66.8977 73.1126 69.0307C72.3938 72.0447 68.7821 77.2227 70.8462 79.8975C70.7169 81.1145 70.8739 80.6385 70.0788 81.7264C68.7407 80.3216 63.0688 65.0749 62.2068 62.5957Z" fill="#2C2A27"/>
<path d="M21.7683 44.0965L23.4278 41.1983L23.8789 42.0119C24.0803 41.996 24.206 42.0202 24.3441 41.9295L24.7281 42.4177C26.0321 42.6289 27.8124 41.7857 29.0694 41.2991C29.1561 42.2697 29.0064 41.925 29.586 42.6353C27.5807 43.514 26.1239 44.1756 24.0218 44.7943C25.1352 48.848 27.5029 53.3907 28.3189 57.3142C31.8435 55.8206 41.6213 51.3846 44.8388 50.5294L45.2662 50.8325C42.8741 51.6426 28.0699 58.0698 27.3873 57.9991C25.8547 55.7412 22.551 46.8819 21.7683 44.0965Z" fill="#22201D"/>
<path d="M55.7477 50.8022L56.0151 51.3212C56.5035 51.3755 56.6727 51.3888 57.1823 51.3785C58.3263 52.0707 59.4203 52.7152 60.5074 53.4999C61.3805 56.1872 62.619 58.9296 63.4322 61.4622C63.0248 61.9572 62.791 62.3496 62.2076 62.5982C61.6284 61.0928 59.9442 56.2898 58.8707 55.2985C58.1619 54.2396 58.1386 54.4915 56.9377 54.342L57.4072 54.0845L57.3195 53.7908C56.3146 53.2934 55.3795 52.9022 54.345 52.4699L55.5879 50.9274L55.7477 50.8022Z" fill="#191814"/>
<path d="M28.4133 37.9672C29.2782 37.8022 29.172 37.7587 30.1386 38.2477C30.531 39.3043 31.2084 40.7324 31.023 41.7857C30.5369 42.4708 30.5568 42.2852 29.5869 42.636C29.0073 41.9257 29.157 42.2704 29.0703 41.2998L29.3731 41.0185C29.4363 40.4178 28.6849 38.8217 28.4133 37.9672Z" fill="#090908"/>
<path d="M55.7473 50.8017C57.4031 50.3684 61.441 48.8358 62.7354 49.0719C61.7235 50.3987 58.7247 50.6111 57.182 51.378C56.6723 51.3884 56.5032 51.375 56.0147 51.3207L55.7473 50.8017Z" fill="#090908"/>
<path d="M27.669 36.3114L27.6331 35.9848C27.8123 35.3664 28.4674 34.8904 28.9646 34.4323L30.1391 38.2473C29.1725 37.7583 29.2787 37.8018 28.4138 37.9667C28.1657 37.2289 28.0489 36.9931 27.669 36.3114Z" fill="#090908"/>
<path d="M56.1469 32.8867C56.5994 33.1143 56.4023 32.9663 56.6847 33.3993C56.6234 34.2511 53.5135 42.8296 53.009 44.3918C50.749 43.3235 48.1196 42.065 45.9624 40.8449C45.4587 42.64 43.4296 48.6417 42.5118 49.9913C41.6869 49.9645 38.0209 48.036 37.0879 47.5698C35.9699 50.1027 34.2378 52.203 33.2026 54.7736L32.7635 54.7088L32.6333 54.2203C33.1939 52.0439 35.5383 48.29 36.7154 46.2938C38.4053 47.2855 40.147 47.7402 42.0227 48.8929C43.1998 46.4021 44.6648 42.2138 45.3833 39.5291C47.4929 40.4563 50.5749 41.9057 52.4689 43.0702C53.1129 40.2559 55.0252 35.6949 56.1469 32.8867Z" fill="#090908"/>
<path d="M107.317 16.0902C113.308 13.0635 121.607 16.4873 124.207 22.4042C125.569 25.5045 126.747 30.8199 124.156 33.5506C123.714 34.0168 123.418 34.3438 123.019 34.8462L122.339 34.9251C129.697 37.5188 134.701 42.6764 133.219 50.9158C132.272 56.1812 129.167 58.3865 124.837 60.9551C125.164 61.3021 125.481 61.6586 125.787 62.0246C129.123 66.0633 129.493 70.7011 125.183 74.3606C122.879 76.3159 120.38 76.1493 117.528 75.8457C117.197 82.328 115.284 85.4038 108.464 86.5377C109.533 83.4297 110.014 82.0611 111.7 79.2615C109.342 75.3465 108.816 71.0009 106.01 67.2888C106.754 66.7318 107.483 66.1622 108.207 65.5885C117.955 57.8631 120.119 43.1977 113.882 32.5901C111.111 27.8773 107.141 25.2247 102.52 22.432C103.194 20.2755 105.403 19.3338 105.777 17.8449L106.096 18.1825C106.777 18.1398 106.965 18.1118 107.629 17.9544C107.073 16.8992 107.091 17.0291 107.317 16.0902Z" fill="#799FAB"/>
<path d="M107.318 16.0902C113.309 13.0635 121.608 16.4873 124.208 22.4042C125.57 25.5045 126.748 30.8199 124.157 33.5506C123.715 34.0168 123.419 34.3438 123.02 34.8462L122.34 34.9251L122.208 34.505C122.985 32.9235 123.834 29.0089 123.719 27.1913C123.472 23.3142 120.932 20.069 117.609 18.2103C114.092 16.243 111.311 16.7185 107.63 17.9544C107.074 16.8992 107.092 17.0291 107.318 16.0902Z" fill="#191814"/>
<path d="M104.31 105.789C105.973 108.286 113.968 116.257 116.503 118.581C110.953 120.386 102.044 121.571 97.3382 123.313C95.2626 123.32 85.2048 126.005 82.5427 126.623C78.7299 122.52 73.3547 116.741 69.4446 112.865C71.754 112.533 80.8243 111.041 82.9837 110.385C89.8649 109.17 97.7167 107.887 104.31 105.789Z" fill="#E6DC73"/>
<path d="M89.6527 76.4127C88.4497 75.9426 87.3466 75.6451 86.5191 74.6675L86.4942 74.4153C88.5531 74.6078 101.788 80.2569 104.368 81.2973C102.996 86.3338 100.246 91.0149 98.4502 95.8106C98.1408 94.2427 98.9817 94.7655 98.5299 93.2439L98.1739 93.7063L98.0496 94.4603C97.9432 94.4856 97.7548 94.5498 97.6688 94.5277C97.439 95.6414 97.3032 96.616 96.7689 97.6214L96.341 97.8944L96.5327 98.373C96.0908 98.7214 96.0205 98.6735 95.4627 98.7132L92.2885 97.6319C92.0446 98.4705 91.4974 100.171 91.4332 100.957L91.2041 101.676C90.222 102.49 89.9253 104.032 89.606 105.264C90.4638 105.54 91.7088 105.884 92.471 106.3C92.2387 107.209 92.433 106.937 91.8092 107.551C90.9473 107.684 89.1187 107.425 87.7437 107.51L84.4501 108.294C83.9907 108.251 83.5321 108.199 83.0744 108.139C82.1061 107.219 82.0551 104.532 82.6301 103.65L83.0307 103.759C83.4456 102.81 83.1775 103.101 84.0011 102.604L82.7497 102.532C82.2941 101.607 82.248 99.4818 82.1588 98.3605L81.6552 98.0716L81.0662 98.2785L81.1134 97.6364L81.1964 96.9165C80.1675 96.4099 79.512 95.8996 78.5876 95.2293C79.0999 94.0336 79.4556 93.1527 80.1308 92.0442L80.1097 91.3971C80.527 90.3292 80.9339 88.7268 81.6966 88.1181L82.3176 87.5647L84.8309 88.4658C85.3565 86.9153 85.5586 86.1778 85.8497 84.5695L86.2801 84.1283C86.9984 82.9015 86.8704 82.1906 87.9834 80.5541C87.9039 79.7992 87.8114 80.1201 88.1791 79.5381C88.6635 78.4465 89.1118 77.4768 89.6527 76.4127Z" fill="#090908"/>
<path d="M84.4504 108.294C83.991 108.25 83.5324 108.198 83.0747 108.139C82.1064 107.219 82.0554 104.531 82.6304 103.649L83.031 103.759C86.1136 104.585 88.3095 105.771 91.2521 106.761C90.1168 106.995 88.8565 107.228 87.744 107.51L84.4504 108.294Z" fill="#FDFDFD"/>
<path d="M94.5409 93.1348L97.67 94.5276C97.4402 95.6413 97.3044 96.6159 96.7701 97.6213L96.3423 97.8943C95.0075 97.6277 93.9633 97.2868 92.6631 96.8772C93.2204 95.67 93.9347 94.3355 94.5409 93.1348Z" fill="#FDFDFD"/>
<path d="M94.6252 92.1648C95.2869 90.7395 95.3877 89.9623 96.6882 89.3829C97.7422 89.4397 98.6456 90.0873 99.6021 90.6218C99.2379 91.439 98.8709 92.4042 98.5302 93.2435L98.1743 93.7058L94.6252 92.1648Z" fill="#FDFDFD"/>
<path d="M80.1094 91.399C80.5267 90.3311 80.9336 88.7287 81.6963 88.12C82.544 88.5575 83.3642 89.0154 84.2599 89.3396C83.8969 90.3934 83.4735 91.7386 83.0602 92.7458L80.1094 91.399Z" fill="#FDFDFD"/>
<path d="M80.1308 92.0445C81.2206 92.8786 81.6369 93.0633 82.8984 93.6438C82.1555 94.8412 81.631 95.5811 81.1964 96.9168C80.1675 96.4102 79.512 95.8999 78.5876 95.2296C79.0999 94.0339 79.4556 93.153 80.1308 92.0445Z" fill="#FDFDFD"/>
<path d="M82.7506 102.535C82.295 101.609 82.249 99.4839 82.1597 98.3626C83.2546 98.7588 84.3612 99.122 85.4782 99.4517C85.0506 100.528 84.6681 101.667 84.002 102.606L82.7506 102.535Z" fill="#FDFDFD"/>
<path d="M93.2142 82.7747C94.6815 83.2232 95.3319 83.5651 96.7146 84.2702C96.3701 85.5188 96.0435 86.772 95.735 88.0297C94.2778 87.1411 93.4548 86.8683 91.8169 86.3352C92.2955 85.3174 92.8033 83.8581 93.2142 82.7747Z" fill="#FDFDFD"/>
<path d="M97.5544 84.5552C99.0241 85.1849 99.9923 85.594 101.527 86.0566C101.023 87.6078 100.836 88.1134 100.054 89.5298C99.2038 89.6451 97.4137 88.4955 96.5601 88.0274C97.1395 86.5514 97.3122 86.1043 97.5544 84.5552Z" fill="#FDFDFD"/>
<path d="M83.7507 93.5203C85.1073 94.3612 85.6385 94.6347 87.1209 95.2223L85.8491 98.8329C84.3747 98.0454 83.1123 98.1882 82.437 96.5635C82.5075 95.5649 83.2464 94.4409 83.7507 93.5203Z" fill="#FDFDFD"/>
<path d="M87.9811 95.6313C89.5238 96.0091 90.4355 96.6216 91.7989 97.4047C91.1378 98.5266 90.8368 99.2583 90.3335 100.465C89.1693 100.344 87.7043 99.4596 86.6167 98.8939C87.3011 97.5675 87.5793 97.0497 87.9811 95.6313Z" fill="#FDFDFD"/>
<path d="M86.9887 85.2564C87.6778 85.4888 89.6853 86.4463 90.6211 86.8112C90.3248 87.8642 89.7964 89.0026 89.3594 90.0218C88.5018 89.8983 86.3942 89.1866 85.4749 88.902C86.0554 87.7768 86.5293 86.4496 86.9887 85.2564Z" fill="#FDFDFD"/>
<path d="M90.539 76.9228C91.8412 77.1037 92.6055 77.4665 93.8211 77.954C93.5918 79.4347 93.2995 80.4067 92.7554 81.7836C91.5857 81.2641 90.2113 80.5341 89.0452 79.9554L90.539 76.9228Z" fill="#FDFDFD"/>
<path d="M94.6832 78.3068C95.7219 78.6809 97.5508 79.6621 98.5992 80.1858C98.0229 81.201 97.7036 82.1324 97.2921 83.2205C96.3561 83.2757 94.7377 82.4031 93.792 81.9745C94.2816 80.4813 94.5117 79.8484 94.6832 78.3068Z" fill="#FDFDFD"/>
<path d="M86.3856 99.8568C87.4018 100.228 89.0798 101.077 90.2476 101.554C89.4257 102.729 89.2321 103.091 88.6499 104.405C87.7434 104.632 85.8069 103.542 84.8948 103.102C85.3833 102.016 85.8802 100.935 86.3856 99.8568Z" fill="#FDFDFD"/>
<path d="M99.2284 80.5132C100.867 80.9282 101.561 81.1998 103.128 81.8687L102.099 85.1177C100.905 84.4723 99.453 84.2571 98.113 83.9796C98.5228 82.8793 98.8783 81.6446 99.2284 80.5132Z" fill="#FDFDFD"/>
<path d="M88.4232 81.0933C90.0028 81.2098 90.8733 81.7622 92.2222 82.516C91.9391 83.5291 91.4624 84.8035 91.1123 85.8218C89.9506 85.1917 88.5818 84.6628 87.3508 84.1515C87.8847 82.9201 88.0778 82.3879 88.4232 81.0933Z" fill="#FDFDFD"/>
<path d="M89.8406 91.7067C91.0522 91.8305 92.2517 92.3052 93.4105 92.7055C92.9281 94.1681 92.708 94.8608 91.8678 96.1338C90.5393 95.4348 89.5549 95.1282 88.1475 94.6562L89.8406 91.7067Z" fill="#FDFDFD"/>
<path d="M85.1643 89.4857C86.4557 90.0867 87.5546 90.5383 88.8844 91.0531L87.5229 94.2417C86.471 93.9339 84.9087 93.2981 83.8411 92.9024C84.4383 91.6308 84.7215 90.827 85.1643 89.4857Z" fill="#FDFDFD"/>
<path d="M91.5115 87.4445C92.7594 87.608 94.0403 88.1472 95.2316 88.5899C94.7539 89.8182 94.4057 90.6136 93.8124 91.7893C92.3026 91.1674 91.5604 90.9622 89.9629 90.5675C90.7723 89.2705 90.9629 88.8737 91.5115 87.4445Z" fill="#FDFDFD"/>
<path d="M85.8366 70.994C91.6344 72.0924 94.6677 71.9867 100.453 70.236C102.161 69.7189 103.402 68.6092 104.825 69.3347C105.159 70.2584 102.939 75.1849 102.473 76.765C104.343 77.4863 107.616 78.7683 109.251 79.8211C106.376 85.6375 104.538 92.2945 101.837 98.2293C100.833 100.437 99.7877 104.746 97.2433 105.469C96.3886 105.712 95.2659 105.953 94.4474 105.603C95.4638 103.838 97.9123 97.7516 98.4503 95.8123C100.246 91.0166 102.996 86.3355 104.368 81.299C101.788 80.2586 88.5532 74.6095 86.4943 74.4171L86.5192 74.6692C87.3467 75.6469 88.4498 75.9443 89.6528 76.4145C89.1119 77.4786 88.6636 78.4483 88.1792 79.5399C81.9152 77.6475 84.2775 75.816 85.8366 70.994Z" fill="#FDFDFD"/>
<path d="M74.6975 65.2594C75.9101 66.2539 77.2505 67.3275 78.6083 68.1195L78.4678 68.3566C77.7627 69.5586 76.6904 73.1713 75.4658 73.3478C73.0467 73.6962 71.9388 77.8 70.8468 79.8991C68.7827 77.2243 72.3944 72.0463 73.1132 69.0323C73.7071 67.7205 74.1966 66.6071 74.6975 65.2594Z" fill="#FDFDFD"/>
<path d="M82.8342 83.7733L85.8511 84.5719C85.56 86.1802 85.3579 86.9177 84.8323 88.4682L82.319 87.5671C81.9717 86.3244 82.4884 85.0549 82.8342 83.7733Z" fill="#FDFDFD"/>
<path d="M84.7892 79.6799L87.9832 80.5551C86.8703 82.1916 86.9983 82.9025 86.28 84.1293C85.2505 83.3353 84.5825 83.146 83.3694 82.689C83.9248 81.6749 84.3259 80.7362 84.7892 79.6799Z" fill="#FDFDFD"/>
<path d="M80.9717 98.6897C80.2219 98.7233 78.8298 98.3739 78.2922 97.8126L78.4384 97.4858C79.3587 97.2116 80.1458 97.462 81.1148 97.6378L81.0676 98.2799L80.9717 98.6897Z" fill="#C5C5C5"/>
<path d="M89.1128 22.4776C102.043 20.9382 113.775 30.1694 115.32 43.0991C116.864 56.029 107.638 67.7642 94.7087 69.3145C81.772 70.8654 70.0283 61.6325 68.4826 48.6951C66.937 35.7576 76.1748 24.0178 89.1128 22.4776Z" fill="#799FAB"/>
<path d="M90.9789 26.2223C101.801 25.7282 110.993 34.0593 111.563 44.8772C112.133 55.6953 103.867 64.9461 93.0528 65.5917C82.1313 66.244 72.7682 57.8771 72.1926 46.9514C71.617 36.0254 80.0493 26.7211 90.9789 26.2223Z" fill="#2A2927"/>
<path d="M89.3334 28.403C99.0158 27.0365 107.958 33.8192 109.252 43.5117C110.546 53.2039 103.696 62.0949 93.9945 63.3164C84.3949 64.5248 75.6178 57.7632 74.3373 48.1727C73.057 38.5825 79.7528 29.7552 89.3334 28.403Z" fill="#F8F7D2"/>
<path d="M91.0999 33.1138C94.4043 32.9458 97.6867 33.9413 99.0694 36.9464C101.362 42.3096 97.4555 45.2256 93.9786 48.5171C93.2777 49.1806 93.348 53.5196 90.6288 52.1749C89.075 50.3909 90.5466 47.1537 91.9133 45.6516L92.1297 45.4157C94.7434 42.9733 99.5729 37.6158 92.0954 36.3816C88.2038 35.7394 88.2381 39.6252 86.12 41.6803L85.9017 41.8897C83.6461 40.5932 82.9255 39.2394 84.7164 36.6983C86.2793 34.4806 88.4583 33.5254 91.0999 33.1138Z" fill="#2A2927"/>
<path d="M91.3277 53.886C92.8979 54.0845 93.463 55.1594 94.495 56.4202C93.7685 57.5461 93.5319 57.9827 92.5312 58.8565L92.3124 58.8509C88.5867 58.7207 88.9377 55.905 91.3277 53.886Z" fill="#2A2927"/>
<path d="M74.933 75.3332C76.381 75.395 81.6887 77.0159 82.285 77.7753C83.554 79.3916 77.5802 92.4648 76.5586 93.641L76.2356 93.5865L75.9393 92.8934C74.6318 87.7779 72.4483 89.9693 68.3835 91.1667C69.985 88.9461 73.6189 78.5603 74.933 75.3332Z" fill="#799FAB"/>
<path d="M107.081 89.5738C109.755 90.4689 113.853 90.9274 116.676 91.1811C115.089 92.4076 109.589 98.3938 107.612 100.316C106.591 101.377 103.688 104.713 102.257 103.209C101.94 101.296 106.082 91.9045 107.081 89.5738Z" fill="#E6DC73"/>
<path d="M80.3021 68.8204C81.7372 69.1588 82.7564 69.8155 84.0339 70.5269C83.1328 72.3742 82.7353 73.3601 82.0638 75.2881C81.2431 75.3877 79.6092 74.2543 78.7107 73.7602C79.2516 72.1169 79.7821 70.4703 80.3021 68.8204Z" fill="#799FAB"/>
<path d="M105.999 71.4453L106.512 71.818C107.052 73.0078 108.601 76.1377 108.26 77.3533L107.673 77.3752C106.2 76.8094 105.678 76.5449 104.317 75.7343L105.999 71.4453Z" fill="#F8F7D2"/>
</svg>
