<svg width="110" height="145" viewBox="0 0 110 145" fill="none" xmlns="http://www.w3.org/2000/svg">
<path d="M44.8328 75.1333C44.8068 75.0685 44.7809 75.0036 44.7552 74.9388C43.9722 72.7003 41.7411 72.2668 39.8868 71.2177C39.9211 71.116 39.9552 71.0145 39.9894 70.9127C40.585 70.6079 42.1712 69.9953 42.6158 70.3298C46.216 73.0381 51.2102 78.8286 54.4051 81.8627C55.7117 80.6027 57.0708 78.7578 58.5502 77.7979C59.2949 77.3149 59.8743 77.8607 60.5226 78.3357L60.6618 78.4163C60.7398 78.4598 60.818 78.5035 60.896 78.5472C63.4036 80.4168 68.023 78.9034 69.1387 76.0326C69.4922 75.1229 69.5455 73.7526 69.2885 72.7293C69.2955 71.8575 69.1599 71.7099 69.5662 71.0234C70.3153 70.6959 73.9137 71.6941 74.9482 71.8896L89.435 74.6711C91.4642 75.0717 97.4612 75.6101 98.4473 77.0681C98.3461 78.3325 88.6105 87.5918 87.1025 89.1359C89.0192 90.9065 98.2655 99.9466 98.5063 101.815C97.4794 102.84 80.5435 106.395 78.0104 106.938L77.842 107.111C75.8848 109.152 72.2887 116.106 71.3949 119.142C69.3665 126.033 69.3093 126.973 62.5514 130.346C56.0123 133.609 41.0119 131.651 38.7845 123.807C36.8472 116.985 35.2126 113.448 31.3295 107.153C26.6376 105.666 21.3609 104.936 16.5845 103.674C15.1218 103.288 11.2071 102.896 10.4259 101.744C10.3798 100.059 19.9 91.1644 21.7499 89.1055L14.6524 81.9467C13.5044 80.797 11.2725 78.7054 10.4249 77.4998C10.4779 77.0817 10.4991 77.0127 10.8304 76.7398C12.1249 75.6737 26.2531 73.3581 29.2503 72.5741C29.883 73.069 30.5294 73.5921 31.1811 74.0579C32.1427 74.6785 33.9381 75.2973 35.0588 75.729C34.6205 80.9514 39.6413 83.4755 43.571 79.9699C43.8898 79.6844 44.2056 79.3958 44.5184 79.1037C44.9433 77.4111 44.963 76.8677 44.8328 75.1333Z" fill="#353433"/>
<path d="M69.289 72.7294C70.7742 72.7535 73.963 73.5012 75.5172 73.826L86.9033 76.1133C89.5343 76.6501 93.2323 77.5796 95.7985 77.6085C92.962 80.5214 87.6284 85.4396 85.2413 88.3187C81.531 86.9083 78.7374 86.9117 75.079 86.0866C69.1645 84.7522 62.6141 83.8956 56.8389 82.4337C58.0639 80.5135 59.5156 79.7332 60.523 78.3358L60.6623 78.4164C60.7403 78.4599 60.8185 78.5036 60.8965 78.5473C63.4041 80.4169 68.0234 78.9036 69.1392 76.0327C69.4927 75.123 69.5459 73.7527 69.289 72.7294Z" fill="#E7DC72"/>
<path d="M31.1811 74.0573C32.1427 74.6779 33.9381 75.2967 35.0588 75.7284C34.6205 80.9508 39.6413 83.4749 43.571 79.9693C43.8898 79.6838 44.2056 79.3952 44.5184 79.1031C44.9433 77.4105 44.963 76.8671 44.8328 75.1327C46.8426 76.827 50.2966 80.4696 52.183 82.4452C46.2555 84.0158 39.6818 84.7489 33.6396 86.1222C30.2016 86.9038 27.2175 87.0741 23.7701 88.2244C20.2348 84.6723 16.7619 81.0986 13.0992 77.6758C14.9014 77.5623 29.9114 74.8275 31.1811 74.0573Z" fill="#E7DC72"/>
<path d="M84.9934 90.0725C86.8107 91.1458 93.8212 98.8832 95.7175 100.922C86.4638 103.287 76.385 105.327 66.963 107.624C63.983 104.179 58.8428 99.2877 56.3386 96.038C58.7083 95.9104 61.9041 95.0919 64.2862 94.5774L75.2625 92.2445C77.9616 91.6692 82.6755 91.0211 84.9934 90.0725Z" fill="#E7DC72"/>
<path d="M23.6723 90.2315C24.4685 90.1771 26.4167 90.838 27.4949 91.0213C33.1082 91.9764 38.6576 93.4369 44.2556 94.5022C46.8386 94.9937 49.9808 95.8904 52.5562 96.0109C51.2709 97.7165 49.0108 99.939 47.4941 101.524C45.6102 103.492 43.8183 105.479 41.9579 107.459C40.7131 107.503 36.1053 106.061 34.7246 105.783C27.5905 104.349 20.1966 102.3 13.093 100.895C15.7227 98.252 21.0369 92.3263 23.6723 90.2315Z" fill="#E7DC72"/>
<path d="M55.3583 98.1393C55.6123 98.2441 65.3406 108.437 66.1754 109.471C68.5338 109.424 72.8861 108.1 75.2542 107.373C72.5132 110.687 69.884 117.179 68.5919 121.238C67.5509 128.087 60.9255 128.793 55.3121 130.223C55.2704 123.624 55.265 117.024 55.2959 110.425C55.2905 106.806 55.0735 101.588 55.3583 98.1393Z" fill="#E7DC72"/>
<path d="M53.2637 98.2235C53.6988 98.9247 53.3968 126.098 53.3477 130.156C48.8502 129.162 41.2381 127.85 40.4994 122.331C38.944 116.879 36.8432 112.077 33.6763 107.339C34.9542 107.821 41.6578 109.94 42.8384 109.124C43.5023 108.665 45.9101 106.042 46.6486 105.259L53.2637 98.2235Z" fill="#E7DC72"/>
<path d="M54.7554 84.1751C57.577 84.3744 62.8617 85.6086 65.8391 86.2512C69.317 87.0019 76.8223 88.0963 80.0076 89.2956C75.7948 90.4692 71.5782 90.9089 67.3803 91.8784C63.1368 92.8585 58.6636 93.5487 54.4843 94.6014C49.2388 93.276 43.5228 92.4663 38.231 91.159C35.95 90.5955 31.4112 90.3313 29.3716 89.3776C29.4026 89.3389 29.4283 89.2956 29.4644 89.2613C30.3144 88.4546 52.3003 84.3415 54.7554 84.1751Z" fill="#E7DC72"/>
<path d="M46.2475 24.2872C51.3582 23.8774 53.6456 26.226 56.2393 30.1879C58.9362 30.4031 60.8421 30.9511 62.4087 33.3861C63.3487 34.8214 63.6623 36.5781 63.2767 38.25C62.7654 40.38 61.4747 41.8829 59.6578 43.0186C59.7633 45.1316 59.8756 46.1649 58.9227 48.1145C57.2577 51.5202 53.729 52.8159 50.1467 51.8703C49.9758 51.8251 47.3878 53.9315 47.0078 54.1218C46.1553 54.6205 45.2596 54.9163 44.3464 55.2407C40.6804 55.5774 38.1147 53.6189 36.202 50.6981C32.2398 51.3832 29.0725 50.2072 27.3918 46.1713C26.2359 43.3954 27.8921 41.455 29.0436 38.9664C28.7028 36.2411 28.5933 33.7613 30.3245 31.4394C31.8558 29.3857 34.5315 28.2464 37.0746 28.396C37.5835 28.4262 38.7316 28.6927 39.167 28.5881C40.6554 28.2309 41.2878 25.0546 46.2475 24.2872Z" fill="#353433"/>
<path d="M46.165 26.2834C50.7969 26.0519 53.372 27.5768 54.6447 32.2347C59.206 32.0695 63.9515 34.4079 60.4861 39.8662C60.1143 40.4519 56.9456 41.9756 57.1662 42.5744C59.0498 47.6879 56.3509 49.3078 52.0483 50.5358C51.0752 50.1309 50.1993 49.696 49.2537 49.2308C47.8744 51.6089 47.1477 52.2953 44.6196 53.1715C41.1864 53.9701 38.2997 51.6458 37.495 48.364C35.8087 48.8358 34.2473 49.1325 32.5213 48.6714C31.2851 48.3413 30.0926 47.5653 29.4725 46.423C27.3799 42.5676 31.1451 40.7689 31.2227 39.5416C31.3479 37.5613 30.3746 36.2211 31.0467 34.0762C31.4391 32.8045 32.329 31.7454 33.514 31.1395C35.786 29.9569 38.2026 30.3701 40.5217 31.1026C41.2739 28.3391 43.4075 26.7711 46.165 26.2834Z" fill="#74A2AF" fill-opacity="0.45"/>
<path d="M70.9657 40.0166C75.0722 39.7173 78.5946 40.2498 80.3497 44.5117C84.6044 44.832 85.4383 45.8572 86.0583 50.0341C86.5925 50.4742 87.2478 51.0068 87.7264 51.4972C88.9572 52.7659 89.6381 54.4688 89.6217 56.2364C89.5954 58.0827 88.8238 59.84 87.4826 61.109C85.457 63.0498 83.6179 63.2064 81.0274 63.1266C79.2369 66.5187 76.7429 66.0048 73.4059 65.9629C71.6827 69.0042 69.227 68.9768 66.0808 68.7101C64.1821 67.4186 64.0026 67.1738 62.8511 65.1608C63.0829 61.6258 63.1639 63.1066 60.409 61.4244C56.1947 58.8507 56.4453 52.829 60.9633 50.535C61.411 46.7751 61.8465 45.2719 65.8396 44.4239C67.0587 42.1389 68.6718 41.037 70.9657 40.0166Z" fill="#353433"/>
<path d="M72.5731 41.86C76.4352 41.4528 77.9178 43.6725 79.6051 46.6244C79.7728 46.6098 79.9412 46.6006 80.1096 46.5966C83.6702 46.5186 84.1309 47.9165 84.2324 51.07C87.3265 52.8271 87.6387 54.353 87.6381 57.6878C85.8377 61.4057 84.396 61.0714 80.8828 61.2052C80.1914 61.2316 79.8985 61.8873 79.5275 62.4524C77.6507 65.3125 75.3966 64.3111 72.8282 63.41C72.2646 63.707 71.9876 64.7112 71.2395 65.6117L71.0753 65.8076C70.6757 66.2288 70.0866 66.7305 69.6452 67.1301C68.2384 67.168 66.8607 67.297 65.7657 66.3038C63.48 64.2305 65.3873 62.1989 66.7516 60.6889C63.8057 61.2772 61.4982 60.8709 59.862 58.1072C57.7718 54.5762 60.7262 52.6711 63.383 51.23C63.2597 50.7362 63.1484 50.2397 63.0494 49.7408C62.3718 46.152 66.3123 47.0036 67.0755 46.058C69.1532 43.4838 68.2138 42.473 72.5731 41.86Z" fill="#74A2AF" fill-opacity="0.45"/>
<path d="M26.4546 53.5922C27.9388 53.4836 28.8151 53.5046 30.2897 53.572L32.3259 54.9445C35.0212 54.8719 35.7282 55.7592 37.5428 57.557C41.3325 61.3112 41.5669 64.9555 36.4707 67.5891C36.5389 68.4842 36.5372 69.4715 36.5531 70.3764C37.0548 71.0144 37.357 71.325 37.6096 72.1133C37.5218 72.8832 37.6617 72.6121 37.1344 73.1305C35.7869 73.5441 35.0994 73.1704 33.8014 72.6921C32.3136 72.471 30.7935 70.1763 30.0695 70.2146C28.8458 70.2794 27.7305 70.8215 26.1276 70.391C24.4176 69.9315 23.7397 67.8708 22.9535 67.3729C21.3798 66.5035 20.0486 66.4271 19.2905 64.499C17.8273 60.7786 20.0177 58.6055 23.0439 57.2508C24.249 55.3022 24.4403 54.6965 26.4546 53.5922Z" fill="#353433"/>
<path d="M27.8116 55.2013C30.5991 55.0659 30.4062 56.6368 32.3849 56.9217C34.8125 57.2712 34.7658 56.0813 35.8148 59.3232C38.4506 61.1762 39.3976 62.1048 37.4536 65.0507C36.6339 65.4948 35.7064 65.8387 34.8385 66.189C34.784 68.1667 34.8835 69.3946 35.0649 71.3713C33.7199 70.6567 33.3594 70.5779 32.2311 69.535C31.6656 68.8935 31.0029 68.0029 30.4611 67.3151C27.8029 69.8608 26.0857 68.9198 24.3635 66.086C20.4268 64.3399 19.2883 62.3492 22.6822 59.1795C23.4103 59.169 23.7542 59.1935 24.4718 59.0126C24.9979 58.3554 24.8851 57.9369 25.0082 56.9829C25.9652 56.0003 26.572 55.6775 27.8116 55.2013Z" fill="#74A2AF" fill-opacity="0.45"/>
<path d="M73.355 16.8855C74.0249 16.8604 74.7964 16.7997 75.4541 16.8534C83.4504 17.5053 86.5612 26.9087 80.5534 32.2033C79.0521 33.5265 76.3803 34.4705 74.4117 34.3225C71.2824 33.401 69.7858 36.4016 67.3694 35.8113C66.3767 34.804 68.228 32.6216 68.0678 31.2338C67.9579 30.3477 67.0598 29.4601 66.8294 28.648C65.1363 22.6837 68.0428 18.9484 73.355 16.8855Z" fill="#353433"/>
<path d="M73.3201 18.8852C75.0074 18.7061 77.0108 18.6205 78.4506 19.6172C84.3638 23.7101 82.2055 30.915 75.6256 32.4559C74.0626 32.4738 73.8453 32.424 72.4513 31.8686L69.6966 33.4256C71.0822 29.2794 69.5675 30.9503 68.4556 27.9484C66.9061 23.7647 69.7121 20.2479 73.3201 18.8852Z" fill="#E7DC72"/>
<path d="M43.6913 131.117C44.3646 131.42 45.1172 132.035 45.852 132.389C51.6395 135.18 59.9022 135.124 65.0532 130.899C64.6528 132.408 64.6857 134.217 63.8969 135.416C60.3794 140.114 51.6068 140.473 46.907 137.361C44.5062 135.773 44.1856 133.728 43.6913 131.117Z" fill="#353433"/>
<path d="M47.9189 56.6425C48.8792 56.6722 51.7213 58.2711 52.4233 58.9875C55.3438 61.968 51.2314 67.7965 47.3503 65.5758C46.457 65.2897 45.7303 65.0366 44.8583 64.6922L43.8393 61.7129C44.8647 59.3675 45.2198 57.2421 47.9189 56.6425Z" fill="#51666B"/>
<path d="M47.9192 56.6425C48.8795 56.6722 51.7217 58.2711 52.4237 58.9875C55.3442 61.968 51.2317 67.7965 47.3507 65.5758C47.2806 64.5113 47.2661 64.3679 46.7678 63.4181C48.0934 63.4676 48.4989 63.8227 49.6691 64.4347C52.7255 60.4006 52.1907 60.3943 47.8677 57.9208C48.003 57.3131 48.0579 57.2274 47.9192 56.6425Z" fill="#343332"/>
<path d="M43.8393 61.7129C44.8647 59.3675 45.2198 57.2421 47.9189 56.6425C48.0575 57.2274 48.0026 57.3131 47.8674 57.9208C47.1881 58.9689 44.4914 62.7949 46.7674 63.4181C47.2657 64.3679 47.2803 64.5113 47.3503 65.5758C46.457 65.2897 45.7303 65.0366 44.8583 64.6922L43.8393 61.7129Z" fill="#353433"/>
<path d="M47.2774 139.719C47.6217 139.877 47.9736 140.017 48.3319 140.138C52.5537 141.557 57.914 141.351 61.9473 139.396C61.5319 140.603 61.2957 141.417 60.6125 142.514C56.9042 146.235 48.0468 146.147 47.2774 139.719Z" fill="#353433"/>
<path d="M62.8741 70.4051C64.0455 70.0636 65.3101 70.3653 66.201 71.1987C67.1069 72.0461 67.4889 73.3143 67.2016 74.5212C66.9146 75.7279 66.0023 76.6881 64.8117 77.0366C62.9802 77.5728 61.0607 76.5221 60.5255 74.6902C59.9903 72.8583 61.042 70.9396 62.8741 70.4051Z" fill="#353433"/>
<path d="M63.1955 72.0491C65.1689 71.9334 66.7913 73.6821 64.27 75.3393L63.9813 75.4518C61.9112 75.2517 61.7706 73.4665 63.1955 72.0491Z" fill="#74A2AF" fill-opacity="0.45"/>
<path d="M39.1728 73.8835C40.8303 73.8281 41.3688 74.3573 42.5252 75.4114C42.6281 77.9208 42.9208 78.3144 40.5042 79.3942C37.2401 79.7922 36.0189 75.983 39.1728 73.8835Z" fill="#353433"/>
<path d="M51.6259 67.1312C55.3426 67.7151 55.4874 70.8643 52.2048 72.6619C48.5135 72.4584 47.9126 68.5727 51.6259 67.1312Z" fill="#353433"/>
<path d="M53.5141 74.0816C54.6681 73.6583 55.9499 74.2284 56.4081 75.3691C56.8663 76.5096 56.3355 77.808 55.2092 78.3008C54.4497 78.6329 53.5695 78.5256 52.912 78.0207C52.2545 77.5156 51.924 76.6927 52.0492 75.8732C52.1745 75.0537 52.7359 74.3672 53.5141 74.0816Z" fill="#353433"/>
<path d="M54.5549 0C54.6846 0.0616422 54.9026 0.233798 55.0291 0.325363C55.4983 2.24285 55.2533 14.6172 55.0714 17.0272C54.8422 16.9466 54.4265 16.858 54.4097 16.6893C54.2018 14.6068 54.116 1.10896 54.5549 0Z" fill="#74A2AF" fill-opacity="0.45"/>
<path d="M108.68 43.2482C109.21 43.1376 109.23 43.0966 109.767 43.246L109.899 43.534C109.268 44.311 97.0491 45.7593 95.0016 46.1264C94.4565 46.2922 94.4815 46.299 93.9199 46.2515L93.668 45.9251L93.8581 45.5638C94.5832 45.0912 106.603 43.6182 108.68 43.2482Z" fill="#74A2AF" fill-opacity="0.45"/>
<path d="M99.6517 20.2108C99.8213 20.2546 99.8446 20.3167 99.9997 20.4499C99.8165 21.2274 89.0423 28.7361 87.5029 29.5068C87.2242 29.3661 87.3279 29.4286 87.13 29.1447C87.4841 28.3842 98.2376 21.1101 99.6517 20.2108Z" fill="#74A2AF" fill-opacity="0.45"/>
<path d="M0 43.2402C2.63745 42.8719 10.1416 45.084 13.1599 44.941C14.1925 44.8921 15.8069 45.2498 16.4978 46.0719C15.0662 46.433 3.83159 44.2314 1.67232 44.1598C0.934606 44.1355 0.407157 43.8488 0 43.2402Z" fill="#507C88"/>
<path d="M30.5795 4.77527C31.5806 5.37912 37.1964 17.1436 37.0655 18.3282C36.9682 18.2833 36.6083 18.1185 36.563 18.0329C35.4191 15.8671 30.7224 6.5968 30.5795 4.77527Z" fill="#507C88"/>
<path d="M9.67993 20.0081C10.2555 20.1328 22.6982 28.8158 23.0782 29.3791C22.5508 29.4194 21.7391 29.0691 21.3421 28.7669C19.484 27.3531 10.1451 21.7367 9.67993 20.0081Z" fill="#507C88"/>
<path d="M11.5513 63.9644L11.9255 64.0843L12.0207 64.4976C11.028 65.4029 3.34128 67.5893 1.69251 67.9869C1.29273 67.9302 1.47067 68.0008 1.17822 67.7185C1.69191 66.8572 9.68305 64.6877 11.5513 63.9644Z" fill="#74A2AF" fill-opacity="0.45"/>
<path d="M97.7887 64.1304C98.6585 64.0747 106.528 66.7337 107.901 67.1189C108.54 67.2983 108.589 67.4166 108.8 67.8967C107.342 67.9713 99.6453 65.6042 97.9904 64.7312C97.8112 64.6367 97.8497 64.4446 97.7887 64.1304Z" fill="#74A2AF" fill-opacity="0.45"/>
<path d="M79.1664 4.83759L79.4204 5.18909C79.2752 6.5512 76.8801 11.1963 76.0554 12.4379C75.844 12.2494 75.8609 12.2169 75.7093 11.9641C75.9423 10.6168 78.255 5.78676 79.1664 4.83759Z" fill="#74A2AF" fill-opacity="0.45"/>
<path d="M74.387 26.6738L74.3956 26.6293C74.455 26.3394 74.5286 26.1138 74.6166 25.9525C74.7061 25.7916 74.8126 25.668 74.9363 25.5817C75.06 25.4955 75.2029 25.4227 75.3651 25.3633C75.4703 25.3221 75.5675 25.272 75.6567 25.2131C75.7459 25.1542 75.8216 25.0814 75.8838 24.9945C75.946 24.9077 75.9882 24.8065 76.0106 24.6909C76.0375 24.5519 76.028 24.4253 75.9821 24.311C75.9361 24.1968 75.8637 24.1017 75.765 24.0259C75.6681 23.9488 75.5532 23.8974 75.4205 23.8717C75.3002 23.8484 75.1805 23.8512 75.0615 23.88C74.9425 23.9088 74.8368 23.9694 74.7444 24.0617C74.6522 24.1524 74.5847 24.2796 74.5417 24.443L73.8294 24.3051C73.8947 24.0261 74.0118 23.8024 74.1805 23.6341C74.3495 23.4642 74.5515 23.3502 74.7864 23.2919C75.0229 23.234 75.2723 23.2304 75.5348 23.2812C75.8222 23.3369 76.0633 23.4394 76.258 23.589C76.453 23.7369 76.5912 23.9184 76.6728 24.1336C76.7562 24.3474 76.7732 24.5817 76.7239 24.8363C76.69 25.0112 76.6322 25.1637 76.5503 25.2937C76.4687 25.4222 76.3665 25.5312 76.2438 25.6209C76.1227 25.7109 75.9837 25.7845 75.8268 25.8416C75.678 25.8987 75.5535 25.9638 75.4535 26.0368C75.355 26.1101 75.2753 26.204 75.2142 26.3186C75.1531 26.4332 75.1036 26.58 75.0657 26.759L75.0571 26.8036L74.387 26.6738ZM74.465 28.167C74.3369 28.1422 74.2356 28.0755 74.1609 27.9671C74.0866 27.8571 74.062 27.7373 74.0871 27.6076C74.1119 27.4795 74.1791 27.3791 74.2888 27.3063C74.3989 27.232 74.5179 27.2073 74.646 27.232C74.7725 27.2565 74.8729 27.3238 74.9473 27.4338C75.0235 27.5425 75.0492 27.661 75.0244 27.7891C75.0077 27.875 74.9706 27.9496 74.9129 28.013C74.8571 28.0751 74.79 28.1205 74.7116 28.1491C74.6331 28.1776 74.5509 28.1836 74.465 28.167Z" fill="#353433"/>
</svg>
