<svg width="13" height="13" viewBox="0 0 690 690" fill="none" xmlns="http://www.w3.org/2000/svg"> <path fillRule="evenodd" clipRule="evenodd" d="M264.646 551.702L423.247 551.318C421.152 579.157 365.352 631.38 342.408 641.077C337.27 634.923 326.805 627.845 319.943 622.405C300.323 606.849 269.289 577.286 264.646 551.702ZM440.186 492.986L253.397 492.211C239.814 488.058 244.96 468.742 246.791 445.769L441.687 446.091C444.104 461.717 443.329 479.667 440.186 492.986ZM257.166 386.74C261.809 363.332 280.794 345.912 293.734 335.571C340.808 297.947 355.307 300.689 399.924 337.503C413.54 348.742 430.125 362.391 434.999 386.722L257.166 386.74ZM428.822 306.504C469.381 283.906 491.838 261.09 543.663 242.478C566.26 234.356 597.409 229.568 619.965 238.848C687.18 266.496 637.672 363.009 544.38 367.971C522.212 369.155 479.888 369.225 467.872 355.74L428.83 306.504H428.822ZM263.928 310.5C222.074 339.262 249.422 374.857 142.943 367.806C51.1441 361.73 0.820202 260.968 74.2114 237.412C138.96 216.633 254.271 293.516 263.928 310.5ZM376.865 190.987C402.794 225.442 390.497 205.011 403.874 220.019C386.687 278.57 297.33 270.7 285.157 220.019L304.059 203.47C311.259 178.278 318.706 174.831 307.548 146.913C335.827 133.203 346.218 132.402 376.625 144.667C377.458 163.549 371.314 166.099 376.865 190.987ZM274.963 124.985C260.168 134.961 247.715 155.871 243.327 180.732C237.117 215.901 248.366 231.805 257.933 254.395C201.506 222.517 109.501 161.399 36.7695 212.402C-21.7686 253.455 -8.28438 333.638 62.1049 380.768C100.182 406.265 138.795 408.354 189.762 405.76C181.119 427.532 135.628 460.655 101.666 464.294C85.543 466.017 70.7312 464.615 71.1353 483.923C71.795 514.957 123.571 501.482 143.586 493.517C173.26 481.712 184.294 465.547 203.947 452.028C204.261 578.34 270.881 647.275 343.629 690C371.908 678.213 421.878 631.876 441.72 602.122C470.915 558.335 481.777 519.615 484.102 452.263C491.937 456.598 501.066 466.592 510.279 473.547C542.888 498.156 609.252 519.632 615.965 489.39C620.831 467.471 606.341 466.113 590.944 464.616C575.225 463.084 565.04 459.906 552.026 452.768C531.647 441.582 506.567 421.551 497.619 404.968C590.878 415.075 689.959 371 690 278.064C690.025 224.284 634.456 187.514 572.066 194.356C535.416 198.378 495.772 219.105 464.045 236.837C452.219 243.444 443.188 251.061 430.611 255.161C455.773 206.395 452.342 157.298 414.768 125.533C418.81 101.063 449.876 70.3861 463.22 58.8954C476.276 47.6396 482.519 45.8813 498.362 38.0553C516.134 29.2719 518.097 10.4949 502.889 2.3643C481.216 -9.22223 441.333 25.9729 430.842 36.3755C420.096 47.0306 413.837 54.4299 404.212 66.3908C395 77.838 386.539 93.594 379.364 101.333C341.122 94.0119 344.948 96.6934 307.795 100.994C299.647 78.813 216.722 -17.3094 181.795 2.72985C175.734 6.2119 163.289 24.6408 186.405 37.6898C201.184 46.0206 210.223 48.2231 223.773 59.3047C239.707 72.3363 269.1 101.847 274.955 125.011L274.963 124.985Z" fill="#040404" /> <path fillRule="evenodd" clipRule="evenodd" d="M257.143 386.73L434.976 386.713C430.102 362.391 413.517 348.732 399.901 337.494C355.284 300.68 340.785 297.938 293.711 335.561C280.771 345.903 261.786 363.322 257.143 386.73Z" fill="#FAD315" /> <path fillRule="evenodd" clipRule="evenodd" d="M440.176 492.981C443.318 479.663 444.093 461.721 441.677 446.087L246.781 445.765C244.95 468.737 239.803 488.054 253.386 492.207L440.176 492.981Z" fill="#FAD315" /> <path fillRule="evenodd" clipRule="evenodd" d="M304.059 203.461L285.157 220.01C297.338 270.691 386.687 278.561 403.874 220.01C390.497 205.002 402.802 225.433 376.865 190.978C365.055 183.144 371.793 169.311 370.91 150.369C361.393 142.282 356.428 139.792 343.678 141.916C337.947 142.865 334.812 143.509 328.916 144.293C299.333 148.219 330.739 196.158 304.059 203.461Z" fill="#FAD315" /> <path fillRule="evenodd" clipRule="evenodd" d="M264.632 551.702C269.275 577.287 300.309 606.849 319.929 622.405C326.782 627.846 337.256 634.923 342.394 641.078C365.338 631.372 421.138 579.149 423.232 551.319L264.632 551.702Z" fill="#FAD315" /> <path fillRule="evenodd" clipRule="evenodd" d="M304.051 203.463C330.73 196.16 299.325 148.221 328.907 144.295C334.804 143.511 337.938 142.867 343.67 141.918C356.42 139.794 361.385 142.284 370.902 150.371C371.785 169.313 365.046 183.146 376.856 190.98C371.306 166.092 377.45 163.542 376.617 144.66C346.202 132.395 335.81 133.196 307.539 146.906C318.698 174.824 311.251 178.271 304.051 203.463Z" fill="#F8EA51" /> </svg>
